solid Mesh
  facet normal 0 -1 0
    outer loop
      vertex -98.4808 0 -17.3648
      vertex -97.6296 0 -21.644
      vertex -50 0 -50
    endloop
  endfacet
  facet normal 0 -1 0
    outer loop
      vertex 53.73 0 84.3391
      vertex 50 0 86.6025
      vertex 50 0 50
    endloop
  endfacet
  facet normal 0 -1 0
    outer loop
      vertex -50 0 -50
      vertex -53.73 0 -84.3391
      vertex -50 0 -86.6025
    endloop
  endfacet
  facet normal 0 -1 0
    outer loop
      vertex -86.6025 0 50
      vertex -50 0 50
      vertex -84.3391 0 53.73
    endloop
  endfacet
  facet normal 0 -1 0
    outer loop
      vertex -50 0 50
      vertex -81.9152 0 57.3576
      vertex -84.3391 0 53.73
    endloop
  endfacet
  facet normal 0 -1 0
    outer loop
      vertex -92.388 0 38.2683
      vertex -93.9693 0 34.202
      vertex -50 0 50
    endloop
  endfacet
  facet normal 0 -1 0
    outer loop
      vertex -50 0 -50
      vertex -67.559 0 -73.7277
      vertex -64.2788 0 -76.6044
    endloop
  endfacet
  facet normal 0 -1 0
    outer loop
      vertex -50 0 -86.6025
      vertex -46.1749 0 -88.7011
      vertex -50 0 -50
    endloop
  endfacet
  facet normal 0 -1 0
    outer loop
      vertex -46.1749 0 -88.7011
      vertex -42.2618 0 -90.6308
      vertex -50 0 -50
    endloop
  endfacet
  facet normal 0 -1 0
    outer loop
      vertex -50 0 -50
      vertex -42.2618 0 -90.6308
      vertex -38.2683 0 -92.388
    endloop
  endfacet
  facet normal 0 -1 0
    outer loop
      vertex -50 0 -50
      vertex -13.0526 0 -99.1445
      vertex -8.71557 0 -99.6195
    endloop
  endfacet
  facet normal 0 -1 0
    outer loop
      vertex 57.3576 0 -81.9152
      vertex 60.8761 0 -79.3353
      vertex 50 0 -50
    endloop
  endfacet
  facet normal 0 -1 0
    outer loop
      vertex 60.8761 0 -79.3353
      vertex 64.2788 0 -76.6044
      vertex 50 0 -50
    endloop
  endfacet
  facet normal 0 -1 0
    outer loop
      vertex -34.202 0 93.9693
      vertex -38.2683 0 92.388
      vertex -50 0 50
    endloop
  endfacet
  facet normal 0 -1 0
    outer loop
      vertex -64.2788 0 76.6044
      vertex -67.559 0 73.7277
      vertex -50 0 50
    endloop
  endfacet
  facet normal 0 -1 0
    outer loop
      vertex -67.559 0 73.7277
      vertex -70.7107 0 70.7107
      vertex -50 0 50
    endloop
  endfacet
  facet normal 0 -1 0
    outer loop
      vertex -50 0 50
      vertex -70.7107 0 70.7107
      vertex -73.7277 0 67.559
    endloop
  endfacet
  facet normal 0 -1 0
    outer loop
      vertex 73.7277 0 -67.559
      vertex 76.6044 0 -64.2788
      vertex 50 0 -50
    endloop
  endfacet
  facet normal 0 -1 0
    outer loop
      vertex 76.6044 0 -64.2788
      vertex 79.3353 0 -60.8761
      vertex 50 0 -50
    endloop
  endfacet
  facet normal 0 -1 0
    outer loop
      vertex -38.2683 0 -92.388
      vertex -34.202 0 -93.9693
      vertex -50 0 -50
    endloop
  endfacet
  facet normal 0 -1 0
    outer loop
      vertex -34.202 0 -93.9693
      vertex -30.0706 0 -95.3717
      vertex -50 0 -50
    endloop
  endfacet
  facet normal 0 -1 0
    outer loop
      vertex -50 0 -50
      vertex -30.0706 0 -95.3717
      vertex -25.8819 0 -96.5926
    endloop
  endfacet
  facet normal 0 -1 0
    outer loop
      vertex -8.71557 0 -99.6195
      vertex -4.36194 0 -99.9048
      vertex -50 0 -50
    endloop
  endfacet
  facet normal 0 -1 0
    outer loop
      vertex -4.36194 0 -99.9048
      vertex -2.83277e-14 0 -100
      vertex -50 0 -50
    endloop
  endfacet
  facet normal 0 -1 0
    outer loop
      vertex -50 0 -50
      vertex -2.83277e-14 0 -100
      vertex 50 0 -50
    endloop
  endfacet
  facet normal 0 -1 0
    outer loop
      vertex -2.83277e-14 0 -100
      vertex 4.36194 0 -99.9048
      vertex 50 0 -50
    endloop
  endfacet
  facet normal 0 -1 0
    outer loop
      vertex 50 0 -50
      vertex 4.36194 0 -99.9048
      vertex 8.71557 0 -99.6195
    endloop
  endfacet
  facet normal 0 -1 0
    outer loop
      vertex 8.71557 0 -99.6195
      vertex 13.0526 0 -99.1445
      vertex 50 0 -50
    endloop
  endfacet
  facet normal 0 -1 0
    outer loop
      vertex 13.0526 0 -99.1445
      vertex 17.3648 0 -98.4808
      vertex 50 0 -50
    endloop
  endfacet
  facet normal 0 -1 0
    outer loop
      vertex 50 0 -50
      vertex 17.3648 0 -98.4808
      vertex 21.644 0 -97.6296
    endloop
  endfacet
  facet normal 0 -1 0
    outer loop
      vertex 34.202 0 -93.9693
      vertex 38.2683 0 -92.388
      vertex 50 0 -50
    endloop
  endfacet
  facet normal 0 -1 0
    outer loop
      vertex 38.2683 0 -92.388
      vertex 42.2618 0 -90.6308
      vertex 50 0 -50
    endloop
  endfacet
  facet normal 0 -1 0
    outer loop
      vertex 50 0 -50
      vertex 42.2618 0 -90.6308
      vertex 46.1749 0 -88.7011
    endloop
  endfacet
  facet normal 0 -1 0
    outer loop
      vertex 46.1749 0 -88.7011
      vertex 50 0 -86.6025
      vertex 50 0 -50
    endloop
  endfacet
  facet normal 0 -1 0
    outer loop
      vertex 50 0 -86.6025
      vertex 53.73 0 -84.3391
      vertex 50 0 -50
    endloop
  endfacet
  facet normal 0 -1 0
    outer loop
      vertex 50 0 -50
      vertex 53.73 0 -84.3391
      vertex 57.3576 0 -81.9152
    endloop
  endfacet
  facet normal 0 -1 0
    outer loop
      vertex 64.2788 0 -76.6044
      vertex 67.559 0 -73.7277
      vertex 50 0 -50
    endloop
  endfacet
  facet normal 0 -1 0
    outer loop
      vertex 67.559 0 -73.7277
      vertex 70.7107 0 -70.7107
      vertex 50 0 -50
    endloop
  endfacet
  facet normal 0 -1 0
    outer loop
      vertex 50 0 -50
      vertex 70.7107 0 -70.7107
      vertex 73.7277 0 -67.559
    endloop
  endfacet
  facet normal 0 -1 0
    outer loop
      vertex -73.7277 0 67.559
      vertex -76.6044 0 64.2788
      vertex -50 0 50
    endloop
  endfacet
  facet normal 0 -1 0
    outer loop
      vertex -76.6044 0 64.2788
      vertex -79.3353 0 60.8761
      vertex -50 0 50
    endloop
  endfacet
  facet normal 0 -1 0
    outer loop
      vertex -50 0 50
      vertex -79.3353 0 60.8761
      vertex -81.9152 0 57.3576
    endloop
  endfacet
  facet normal 0 -1 0
    outer loop
      vertex -76.6044 0 -64.2788
      vertex -73.7277 0 -67.559
      vertex -50 0 -50
    endloop
  endfacet
  facet normal 0 -1 0
    outer loop
      vertex -73.7277 0 -67.559
      vertex -70.7107 0 -70.7107
      vertex -50 0 -50
    endloop
  endfacet
  facet normal 0 -1 0
    outer loop
      vertex -50 0 -50
      vertex -70.7107 0 -70.7107
      vertex -67.559 0 -73.7277
    endloop
  endfacet
  facet normal 0 -1 0
    outer loop
      vertex 50 0 50
      vertex 67.559 0 73.7277
      vertex 64.2788 0 76.6044
    endloop
  endfacet
  facet normal 0 -1 0
    outer loop
      vertex -64.2788 0 -76.6044
      vertex -60.8761 0 -79.3353
      vertex -50 0 -50
    endloop
  endfacet
  facet normal 0 -1 0
    outer loop
      vertex -60.8761 0 -79.3353
      vertex -57.3576 0 -81.9152
      vertex -50 0 -50
    endloop
  endfacet
  facet normal 0 -1 0
    outer loop
      vertex -50 0 -50
      vertex -57.3576 0 -81.9152
      vertex -53.73 0 -84.3391
    endloop
  endfacet
  facet normal 0 -1 0
    outer loop
      vertex -25.8819 0 -96.5926
      vertex -21.644 0 -97.6296
      vertex -50 0 -50
    endloop
  endfacet
  facet normal 0 -1 0
    outer loop
      vertex -21.644 0 -97.6296
      vertex -17.3648 0 -98.4808
      vertex -50 0 -50
    endloop
  endfacet
  facet normal 0 -1 0
    outer loop
      vertex -50 0 -50
      vertex -17.3648 0 -98.4808
      vertex -13.0526 0 -99.1445
    endloop
  endfacet
  facet normal 0 -1 0
    outer loop
      vertex 21.644 0 -97.6296
      vertex 25.8819 0 -96.5926
      vertex 50 0 -50
    endloop
  endfacet
  facet normal 0 -1 0
    outer loop
      vertex 25.8819 0 -96.5926
      vertex 30.0706 0 -95.3717
      vertex 50 0 -50
    endloop
  endfacet
  facet normal 0 -1 0
    outer loop
      vertex 50 0 -50
      vertex 30.0706 0 -95.3717
      vertex 34.202 0 -93.9693
    endloop
  endfacet
  facet normal 0 -1 0
    outer loop
      vertex -86.6025 0 50
      vertex -88.7011 0 46.1749
      vertex -50 0 50
    endloop
  endfacet
  facet normal 0 -1 0
    outer loop
      vertex -88.7011 0 46.1749
      vertex -90.6308 0 42.2618
      vertex -50 0 50
    endloop
  endfacet
  facet normal 0 -1 0
    outer loop
      vertex -50 0 50
      vertex -90.6308 0 42.2618
      vertex -92.388 0 38.2683
    endloop
  endfacet
  facet normal 0 -1 0
    outer loop
      vertex -99.9048 0 -4.36194
      vertex -99.6195 0 -8.71557
      vertex -50 0 -50
    endloop
  endfacet
  facet normal 0 -1 0
    outer loop
      vertex -99.6195 0 -8.71557
      vertex -99.1445 0 -13.0526
      vertex -50 0 -50
    endloop
  endfacet
  facet normal 0 -1 0
    outer loop
      vertex -50 0 -50
      vertex -99.1445 0 -13.0526
      vertex -98.4808 0 -17.3648
    endloop
  endfacet
  facet normal 0 -1 0
    outer loop
      vertex 64.2788 0 76.6044
      vertex 60.8761 0 79.3353
      vertex 50 0 50
    endloop
  endfacet
  facet normal 0 -1 0
    outer loop
      vertex 60.8761 0 79.3353
      vertex 57.3576 0 81.9152
      vertex 50 0 50
    endloop
  endfacet
  facet normal 0 -1 0
    outer loop
      vertex 50 0 50
      vertex 57.3576 0 81.9152
      vertex 53.73 0 84.3391
    endloop
  endfacet
  facet normal 0 -1 0
    outer loop
      vertex -50 0 50
      vertex -50 0 86.6025
      vertex -53.73 0 84.3391
    endloop
  endfacet
  facet normal 0 -1 0
    outer loop
      vertex -97.6296 0 -21.644
      vertex -96.5926 0 -25.8819
      vertex -50 0 -50
    endloop
  endfacet
  facet normal 0 -1 0
    outer loop
      vertex -96.5926 0 -25.8819
      vertex -95.3717 0 -30.0706
      vertex -50 0 -50
    endloop
  endfacet
  facet normal 0 -1 0
    outer loop
      vertex -50 0 -50
      vertex -95.3717 0 -30.0706
      vertex -93.9693 0 -34.202
    endloop
  endfacet
  facet normal 0 -1 0
    outer loop
      vertex -84.3391 0 -53.73
      vertex -50 0 -50
      vertex -86.6025 0 -50
    endloop
  endfacet
  facet normal 0 -1 0
    outer loop
      vertex -50 0 -50
      vertex -88.7011 0 -46.1749
      vertex -86.6025 0 -50
    endloop
  endfacet
  facet normal 0 -1 0
    outer loop
      vertex -84.3391 0 -53.73
      vertex -81.9152 0 -57.3576
      vertex -50 0 -50
    endloop
  endfacet
  facet normal 0 -1 0
    outer loop
      vertex -81.9152 0 -57.3576
      vertex -79.3353 0 -60.8761
      vertex -50 0 -50
    endloop
  endfacet
  facet normal 0 -1 0
    outer loop
      vertex -50 0 -50
      vertex -79.3353 0 -60.8761
      vertex -76.6044 0 -64.2788
    endloop
  endfacet
  facet normal 0 -1 0
    outer loop
      vertex 50 0 86.6025
      vertex 46.1749 0 88.7011
      vertex 50 0 50
    endloop
  endfacet
  facet normal 0 -1 0
    outer loop
      vertex 46.1749 0 88.7011
      vertex 42.2618 0 90.6308
      vertex 50 0 50
    endloop
  endfacet
  facet normal 0 -1 0
    outer loop
      vertex 50 0 50
      vertex 42.2618 0 90.6308
      vertex 38.2683 0 92.388
    endloop
  endfacet
  facet normal 0 -1 0
    outer loop
      vertex -38.2683 0 92.388
      vertex -42.2618 0 90.6308
      vertex -50 0 50
    endloop
  endfacet
  facet normal 0 -1 0
    outer loop
      vertex -42.2618 0 90.6308
      vertex -46.1749 0 88.7011
      vertex -50 0 50
    endloop
  endfacet
  facet normal 0 -1 0
    outer loop
      vertex -50 0 50
      vertex -46.1749 0 88.7011
      vertex -50 0 86.6025
    endloop
  endfacet
  facet normal 0 -1 0
    outer loop
      vertex -53.73 0 84.3391
      vertex -57.3576 0 81.9152
      vertex -50 0 50
    endloop
  endfacet
  facet normal 0 -1 0
    outer loop
      vertex -57.3576 0 81.9152
      vertex -60.8761 0 79.3353
      vertex -50 0 50
    endloop
  endfacet
  facet normal 0 -1 0
    outer loop
      vertex -50 0 50
      vertex -60.8761 0 79.3353
      vertex -64.2788 0 76.6044
    endloop
  endfacet
  facet normal 0 -1 0
    outer loop
      vertex -99.1445 0 13.0526
      vertex -50 0 50
      vertex -98.4808 0 17.3648
    endloop
  endfacet
  facet normal 0 -1 0
    outer loop
      vertex -50 0 50
      vertex -97.6296 0 21.644
      vertex -98.4808 0 17.3648
    endloop
  endfacet
  facet normal 0 -1 0
    outer loop
      vertex -93.9693 0 -34.202
      vertex -92.388 0 -38.2683
      vertex -50 0 -50
    endloop
  endfacet
  facet normal 0 -1 0
    outer loop
      vertex -92.388 0 -38.2683
      vertex -90.6308 0 -42.2618
      vertex -50 0 -50
    endloop
  endfacet
  facet normal 0 -1 0
    outer loop
      vertex -50 0 -50
      vertex -90.6308 0 -42.2618
      vertex -88.7011 0 -46.1749
    endloop
  endfacet
  facet normal 0 -1 0
    outer loop
      vertex 79.3353 0 -60.8761
      vertex 81.9152 0 -57.3576
      vertex 50 0 -50
    endloop
  endfacet
  facet normal 0 -1 0
    outer loop
      vertex 81.9152 0 -57.3576
      vertex 84.3391 0 -53.73
      vertex 50 0 -50
    endloop
  endfacet
  facet normal 0 -1 0
    outer loop
      vertex 50 0 -50
      vertex 84.3391 0 -53.73
      vertex 86.6025 0 -50
    endloop
  endfacet
  facet normal 0 -1 0
    outer loop
      vertex 86.6025 0 -50
      vertex 88.7011 0 -46.1749
      vertex 50 0 -50
    endloop
  endfacet
  facet normal 0 -1 0
    outer loop
      vertex 88.7011 0 -46.1749
      vertex 90.6308 0 -42.2618
      vertex 50 0 -50
    endloop
  endfacet
  facet normal 0 -1 0
    outer loop
      vertex 50 0 -50
      vertex 90.6308 0 -42.2618
      vertex 92.388 0 -38.2683
    endloop
  endfacet
  facet normal 0 -1 0
    outer loop
      vertex 93.9693 0 34.202
      vertex 92.388 0 38.2683
      vertex 50 0 50
    endloop
  endfacet
  facet normal 0 -1 0
    outer loop
      vertex 92.388 0 38.2683
      vertex 90.6308 0 42.2618
      vertex 50 0 50
    endloop
  endfacet
  facet normal 0 -1 0
    outer loop
      vertex 90.6308 0 42.2618
      vertex 88.7011 0 46.1749
      vertex 50 0 50
    endloop
  endfacet
  facet normal 0 -1 0
    outer loop
      vertex 88.7011 0 46.1749
      vertex 86.6025 0 50
      vertex 50 0 50
    endloop
  endfacet
  facet normal 0 -1 0
    outer loop
      vertex 50 0 50
      vertex 86.6025 0 50
      vertex 84.3391 0 53.73
    endloop
  endfacet
  facet normal 0 -1 0
    outer loop
      vertex 84.3391 0 53.73
      vertex 81.9152 0 57.3576
      vertex 50 0 50
    endloop
  endfacet
  facet normal 0 -1 0
    outer loop
      vertex 81.9152 0 57.3576
      vertex 79.3353 0 60.8761
      vertex 50 0 50
    endloop
  endfacet
  facet normal 0 -1 0
    outer loop
      vertex 50 0 50
      vertex 79.3353 0 60.8761
      vertex 76.6044 0 64.2788
    endloop
  endfacet
  facet normal 0 -1 0
    outer loop
      vertex -93.9693 0 34.202
      vertex -95.3717 0 30.0706
      vertex -50 0 50
    endloop
  endfacet
  facet normal 0 -1 0
    outer loop
      vertex -95.3717 0 30.0706
      vertex -96.5926 0 25.8819
      vertex -50 0 50
    endloop
  endfacet
  facet normal 0 -1 0
    outer loop
      vertex -50 0 50
      vertex -96.5926 0 25.8819
      vertex -97.6296 0 21.644
    endloop
  endfacet
  facet normal 0 -1 0
    outer loop
      vertex -99.1445 0 13.0526
      vertex -99.6195 0 8.71557
      vertex -50 0 50
    endloop
  endfacet
  facet normal 0 -1 0
    outer loop
      vertex -99.6195 0 8.71557
      vertex -99.9048 0 4.36194
      vertex -50 0 50
    endloop
  endfacet
  facet normal 0 -1 0
    outer loop
      vertex -50 0 50
      vertex -99.9048 0 4.36194
      vertex -50 0 -50
    endloop
  endfacet
  facet normal 0 -1 0
    outer loop
      vertex -99.9048 0 4.36194
      vertex -100 0 -6.12323e-15
      vertex -50 0 -50
    endloop
  endfacet
  facet normal 0 -1 0
    outer loop
      vertex -50 0 -50
      vertex -100 0 -6.12323e-15
      vertex -99.9048 0 -4.36194
    endloop
  endfacet
  facet normal 0 -1 0
    outer loop
      vertex 50 0 50
      vertex 13.0526 0 99.1445
      vertex 8.71557 0 99.6195
    endloop
  endfacet
  facet normal 0 -1 0
    outer loop
      vertex -8.71557 0 99.6195
      vertex -13.0526 0 99.1445
      vertex -50 0 50
    endloop
  endfacet
  facet normal 0 -1 0
    outer loop
      vertex -13.0526 0 99.1445
      vertex -17.3648 0 98.4808
      vertex -50 0 50
    endloop
  endfacet
  facet normal 0 -1 0
    outer loop
      vertex -50 0 50
      vertex -17.3648 0 98.4808
      vertex -21.644 0 97.6296
    endloop
  endfacet
  facet normal 0 -1 0
    outer loop
      vertex -21.644 0 97.6296
      vertex -25.8819 0 96.5926
      vertex -50 0 50
    endloop
  endfacet
  facet normal 0 -1 0
    outer loop
      vertex -25.8819 0 96.5926
      vertex -30.0706 0 95.3717
      vertex -50 0 50
    endloop
  endfacet
  facet normal 0 -1 0
    outer loop
      vertex -50 0 50
      vertex -30.0706 0 95.3717
      vertex -34.202 0 93.9693
    endloop
  endfacet
  facet normal 0 -1 0
    outer loop
      vertex 92.388 0 -38.2683
      vertex 93.9693 0 -34.202
      vertex 50 0 -50
    endloop
  endfacet
  facet normal 0 -1 0
    outer loop
      vertex 93.9693 0 -34.202
      vertex 95.3717 0 -30.0706
      vertex 50 0 -50
    endloop
  endfacet
  facet normal 0 -1 0
    outer loop
      vertex 50 0 -50
      vertex 95.3717 0 -30.0706
      vertex 96.5926 0 -25.8819
    endloop
  endfacet
  facet normal 0 -1 0
    outer loop
      vertex 50 0 -50
      vertex 99.1445 0 -13.0526
      vertex 99.6195 0 -8.71557
    endloop
  endfacet
  facet normal 0 -1 0
    outer loop
      vertex 76.6044 0 64.2788
      vertex 73.7277 0 67.559
      vertex 50 0 50
    endloop
  endfacet
  facet normal 0 -1 0
    outer loop
      vertex 73.7277 0 67.559
      vertex 70.7107 0 70.7107
      vertex 50 0 50
    endloop
  endfacet
  facet normal 0 -1 0
    outer loop
      vertex 50 0 50
      vertex 70.7107 0 70.7107
      vertex 67.559 0 73.7277
    endloop
  endfacet
  facet normal 0 -1 0
    outer loop
      vertex 8.71557 0 99.6195
      vertex 4.36194 0 99.9048
      vertex 50 0 50
    endloop
  endfacet
  facet normal 0 -1 0
    outer loop
      vertex 4.36194 0 99.9048
      vertex 1.83697e-14 0 100
      vertex 50 0 50
    endloop
  endfacet
  facet normal 0 -1 0
    outer loop
      vertex 50 0 50
      vertex 1.83697e-14 0 100
      vertex -50 0 50
    endloop
  endfacet
  facet normal 0 -1 0
    outer loop
      vertex 1.83697e-14 0 100
      vertex -4.36194 0 99.9048
      vertex -50 0 50
    endloop
  endfacet
  facet normal 0 -1 0
    outer loop
      vertex -50 0 50
      vertex -4.36194 0 99.9048
      vertex -8.71557 0 99.6195
    endloop
  endfacet
  facet normal 0 -1 0
    outer loop
      vertex 96.5926 0 -25.8819
      vertex 97.6296 0 -21.644
      vertex 50 0 -50
    endloop
  endfacet
  facet normal 0 -1 0
    outer loop
      vertex 97.6296 0 -21.644
      vertex 98.4808 0 -17.3648
      vertex 50 0 -50
    endloop
  endfacet
  facet normal 0 -1 0
    outer loop
      vertex 50 0 -50
      vertex 98.4808 0 -17.3648
      vertex 99.1445 0 -13.0526
    endloop
  endfacet
  facet normal 0 -1 0
    outer loop
      vertex 99.6195 0 -8.71557
      vertex 99.9048 0 -4.36194
      vertex 50 0 -50
    endloop
  endfacet
  facet normal 0 -1 0
    outer loop
      vertex 99.9048 0 -4.36194
      vertex 100 0 -1.83697e-14
      vertex 50 0 -50
    endloop
  endfacet
  facet normal 0 -1 0
    outer loop
      vertex 50 0 -50
      vertex 100 0 -1.83697e-14
      vertex 50 0 50
    endloop
  endfacet
  facet normal 0 -1 0
    outer loop
      vertex 100 0 -1.83697e-14
      vertex 99.9048 0 4.36194
      vertex 50 0 50
    endloop
  endfacet
  facet normal 0 -1 0
    outer loop
      vertex 50 0 50
      vertex 99.9048 0 4.36194
      vertex 99.6195 0 8.71557
    endloop
  endfacet
  facet normal 0 -1 0
    outer loop
      vertex 99.6195 0 8.71557
      vertex 99.1445 0 13.0526
      vertex 50 0 50
    endloop
  endfacet
  facet normal 0 -1 0
    outer loop
      vertex 99.1445 0 13.0526
      vertex 98.4808 0 17.3648
      vertex 50 0 50
    endloop
  endfacet
  facet normal 0 -1 0
    outer loop
      vertex 50 0 50
      vertex 98.4808 0 17.3648
      vertex 97.6296 0 21.644
    endloop
  endfacet
  facet normal 0 -1 0
    outer loop
      vertex 97.6296 0 21.644
      vertex 96.5926 0 25.8819
      vertex 50 0 50
    endloop
  endfacet
  facet normal 0 -1 0
    outer loop
      vertex 96.5926 0 25.8819
      vertex 95.3717 0 30.0706
      vertex 50 0 50
    endloop
  endfacet
  facet normal 0 -1 0
    outer loop
      vertex 50 0 50
      vertex 95.3717 0 30.0706
      vertex 93.9693 0 34.202
    endloop
  endfacet
  facet normal 0 -1 0
    outer loop
      vertex 25.8819 0 96.5926
      vertex 21.644 0 97.6296
      vertex 50 0 50
    endloop
  endfacet
  facet normal 0 -1 0
    outer loop
      vertex 21.644 0 97.6296
      vertex 17.3648 0 98.4808
      vertex 50 0 50
    endloop
  endfacet
  facet normal 0 -1 0
    outer loop
      vertex 50 0 50
      vertex 17.3648 0 98.4808
      vertex 13.0526 0 99.1445
    endloop
  endfacet
  facet normal 0 -1 0
    outer loop
      vertex 38.2683 0 92.388
      vertex 34.202 0 93.9693
      vertex 50 0 50
    endloop
  endfacet
  facet normal 0 -1 0
    outer loop
      vertex 34.202 0 93.9693
      vertex 30.0706 0 95.3717
      vertex 50 0 50
    endloop
  endfacet
  facet normal 0 -1 0
    outer loop
      vertex 50 0 50
      vertex 30.0706 0 95.3717
      vertex 25.8819 0 96.5926
    endloop
  endfacet
  facet normal 0 0 -1
    outer loop
      vertex -50 212 50
      vertex 50 212 50
      vertex -50 0 50
    endloop
  endfacet
  facet normal 0 0 -1
    outer loop
      vertex 50 212 50
      vertex 50 0 50
      vertex -50 0 50
    endloop
  endfacet
  facet normal -1 0 0
    outer loop
      vertex 50 212 50
      vertex 50 212 -50
      vertex 50 0 50
    endloop
  endfacet
  facet normal -1 0 0
    outer loop
      vertex 50 212 -50
      vertex 50 0 -50
      vertex 50 0 50
    endloop
  endfacet
  facet normal 1 0 0
    outer loop
      vertex -50 212 -50
      vertex -50 212 50
      vertex -50 0 -50
    endloop
  endfacet
  facet normal 1 0 0
    outer loop
      vertex -50 212 50
      vertex -50 0 50
      vertex -50 0 -50
    endloop
  endfacet
  facet normal 0 0 1
    outer loop
      vertex 50 212 -50
      vertex -50 212 -50
      vertex 50 0 -50
    endloop
  endfacet
  facet normal 0 0 1
    outer loop
      vertex -50 212 -50
      vertex -50 0 -50
      vertex 50 0 -50
    endloop
  endfacet
  facet normal -0.999762 0 -0.0218156
    outer loop
      vertex -100 0 -6.12323e-15
      vertex -99.9048 212 -4.36194
      vertex -99.9048 0 -4.36194
    endloop
  endfacet
  facet normal -0.997859 0 -0.0654025
    outer loop
      vertex -99.9048 212 -4.36194
      vertex -99.6195 212 -8.71557
      vertex -99.9048 0 -4.36194
    endloop
  endfacet
  facet normal -0.997859 0 -0.0654025
    outer loop
      vertex -99.9048 0 -4.36194
      vertex -99.6195 212 -8.71557
      vertex -99.6195 0 -8.71557
    endloop
  endfacet
  facet normal -0.994056 0 -0.108867
    outer loop
      vertex -99.6195 212 -8.71557
      vertex -99.1445 212 -13.0526
      vertex -99.6195 0 -8.71557
    endloop
  endfacet
  facet normal -0.994056 0 -0.108867
    outer loop
      vertex -99.6195 0 -8.71557
      vertex -99.1445 212 -13.0526
      vertex -99.1445 0 -13.0526
    endloop
  endfacet
  facet normal -0.988361 0 -0.152124
    outer loop
      vertex -99.1445 212 -13.0526
      vertex -98.4808 212 -17.3648
      vertex -99.1445 0 -13.0526
    endloop
  endfacet
  facet normal -0.988361 0 -0.152124
    outer loop
      vertex -99.1445 0 -13.0526
      vertex -98.4808 212 -17.3648
      vertex -98.4808 0 -17.3648
    endloop
  endfacet
  facet normal -0.980785 0 -0.195091
    outer loop
      vertex -98.4808 212 -17.3648
      vertex -97.6296 212 -21.644
      vertex -98.4808 0 -17.3648
    endloop
  endfacet
  facet normal -0.980785 0 -0.195091
    outer loop
      vertex -98.4808 0 -17.3648
      vertex -97.6296 212 -21.644
      vertex -97.6296 0 -21.644
    endloop
  endfacet
  facet normal -0.971342 0 -0.237685
    outer loop
      vertex -97.6296 212 -21.644
      vertex -96.5926 212 -25.8819
      vertex -97.6296 0 -21.644
    endloop
  endfacet
  facet normal -0.971342 0 -0.237685
    outer loop
      vertex -97.6296 0 -21.644
      vertex -96.5926 212 -25.8819
      vertex -96.5926 0 -25.8819
    endloop
  endfacet
  facet normal -0.96005 0 -0.279829
    outer loop
      vertex -96.5926 212 -25.8819
      vertex -95.3717 212 -30.0706
      vertex -96.5926 0 -25.8819
    endloop
  endfacet
  facet normal -0.96005 0 -0.279829
    outer loop
      vertex -96.5926 0 -25.8819
      vertex -95.3717 212 -30.0706
      vertex -95.3717 0 -30.0706
    endloop
  endfacet
  facet normal -0.94693 0 -0.321439
    outer loop
      vertex -95.3717 212 -30.0706
      vertex -93.9693 212 -34.202
      vertex -95.3717 0 -30.0706
    endloop
  endfacet
  facet normal -0.94693 0 -0.321439
    outer loop
      vertex -95.3717 0 -30.0706
      vertex -93.9693 212 -34.202
      vertex -93.9693 0 -34.202
    endloop
  endfacet
  facet normal -0.932008 0 -0.362438
    outer loop
      vertex -93.9693 212 -34.202
      vertex -92.388 212 -38.2683
      vertex -93.9693 0 -34.202
    endloop
  endfacet
  facet normal -0.932008 0 -0.362438
    outer loop
      vertex -93.9693 0 -34.202
      vertex -92.388 212 -38.2683
      vertex -92.388 0 -38.2683
    endloop
  endfacet
  facet normal -0.915312 0 -0.402747
    outer loop
      vertex -92.388 212 -38.2683
      vertex -90.6308 212 -42.2618
      vertex -92.388 0 -38.2683
    endloop
  endfacet
  facet normal -0.915312 0 -0.402747
    outer loop
      vertex -92.388 0 -38.2683
      vertex -90.6308 212 -42.2618
      vertex -90.6308 0 -42.2618
    endloop
  endfacet
  facet normal -0.896873 0 -0.442288
    outer loop
      vertex -90.6308 212 -42.2618
      vertex -88.7011 212 -46.1749
      vertex -90.6308 0 -42.2618
    endloop
  endfacet
  facet normal -0.896873 0 -0.442288
    outer loop
      vertex -90.6308 0 -42.2618
      vertex -88.7011 212 -46.1749
      vertex -88.7011 0 -46.1749
    endloop
  endfacet
  facet normal -0.876727 0 -0.480989
    outer loop
      vertex -88.7011 212 -46.1749
      vertex -86.6025 212 -50
      vertex -88.7011 0 -46.1749
    endloop
  endfacet
  facet normal -0.876727 0 -0.480989
    outer loop
      vertex -88.7011 0 -46.1749
      vertex -86.6025 212 -50
      vertex -86.6025 0 -50
    endloop
  endfacet
  facet normal -0.854912 0 -0.518773
    outer loop
      vertex -86.6025 212 -50
      vertex -84.3391 212 -53.73
      vertex -86.6025 0 -50
    endloop
  endfacet
  facet normal -0.854912 0 -0.518773
    outer loop
      vertex -86.6025 0 -50
      vertex -84.3391 212 -53.73
      vertex -84.3391 0 -53.73
    endloop
  endfacet
  facet normal -0.83147 0 -0.55557
    outer loop
      vertex -84.3391 212 -53.73
      vertex -81.9152 212 -57.3576
      vertex -84.3391 0 -53.73
    endloop
  endfacet
  facet normal -0.83147 0 -0.55557
    outer loop
      vertex -84.3391 0 -53.73
      vertex -81.9152 212 -57.3576
      vertex -81.9152 0 -57.3576
    endloop
  endfacet
  facet normal -0.806444 0 -0.59131
    outer loop
      vertex -81.9152 212 -57.3576
      vertex -79.3353 212 -60.8761
      vertex -81.9152 0 -57.3576
    endloop
  endfacet
  facet normal -0.806444 0 -0.59131
    outer loop
      vertex -81.9152 0 -57.3576
      vertex -79.3353 212 -60.8761
      vertex -79.3353 0 -60.8761
    endloop
  endfacet
  facet normal -0.779884 0 -0.625924
    outer loop
      vertex -79.3353 212 -60.8761
      vertex -76.6044 212 -64.2788
      vertex -79.3353 0 -60.8761
    endloop
  endfacet
  facet normal -0.779884 0 -0.625924
    outer loop
      vertex -79.3353 0 -60.8761
      vertex -76.6044 212 -64.2788
      vertex -76.6044 0 -64.2788
    endloop
  endfacet
  facet normal -0.75184 0 -0.659345
    outer loop
      vertex -76.6044 212 -64.2788
      vertex -73.7277 212 -67.559
      vertex -76.6044 0 -64.2788
    endloop
  endfacet
  facet normal -0.75184 0 -0.659345
    outer loop
      vertex -76.6044 0 -64.2788
      vertex -73.7277 212 -67.559
      vertex -73.7277 0 -67.559
    endloop
  endfacet
  facet normal -0.722365 0 -0.691512
    outer loop
      vertex -73.7277 212 -67.559
      vertex -70.7107 212 -70.7107
      vertex -73.7277 0 -67.559
    endloop
  endfacet
  facet normal -0.722365 0 -0.691512
    outer loop
      vertex -73.7277 0 -67.559
      vertex -70.7107 212 -70.7107
      vertex -70.7107 0 -70.7107
    endloop
  endfacet
  facet normal -0.691512 0 -0.722365
    outer loop
      vertex -70.7107 212 -70.7107
      vertex -67.559 212 -73.7277
      vertex -70.7107 0 -70.7107
    endloop
  endfacet
  facet normal -0.691512 0 -0.722365
    outer loop
      vertex -70.7107 0 -70.7107
      vertex -67.559 212 -73.7277
      vertex -67.559 0 -73.7277
    endloop
  endfacet
  facet normal -0.659345 0 -0.75184
    outer loop
      vertex -67.559 212 -73.7277
      vertex -64.2788 212 -76.6044
      vertex -67.559 0 -73.7277
    endloop
  endfacet
  facet normal -0.659345 0 -0.75184
    outer loop
      vertex -67.559 0 -73.7277
      vertex -64.2788 212 -76.6044
      vertex -64.2788 0 -76.6044
    endloop
  endfacet
  facet normal -0.625924 0 -0.779884
    outer loop
      vertex -64.2788 212 -76.6044
      vertex -60.8761 212 -79.3353
      vertex -64.2788 0 -76.6044
    endloop
  endfacet
  facet normal -0.625924 0 -0.779884
    outer loop
      vertex -64.2788 0 -76.6044
      vertex -60.8761 212 -79.3353
      vertex -60.8761 0 -79.3353
    endloop
  endfacet
  facet normal -0.59131 0 -0.806444
    outer loop
      vertex -60.8761 212 -79.3353
      vertex -57.3576 212 -81.9152
      vertex -60.8761 0 -79.3353
    endloop
  endfacet
  facet normal -0.59131 0 -0.806444
    outer loop
      vertex -60.8761 0 -79.3353
      vertex -57.3576 212 -81.9152
      vertex -57.3576 0 -81.9152
    endloop
  endfacet
  facet normal -0.55557 0 -0.83147
    outer loop
      vertex -57.3576 212 -81.9152
      vertex -53.73 212 -84.3391
      vertex -57.3576 0 -81.9152
    endloop
  endfacet
  facet normal -0.55557 0 -0.83147
    outer loop
      vertex -57.3576 0 -81.9152
      vertex -53.73 212 -84.3391
      vertex -53.73 0 -84.3391
    endloop
  endfacet
  facet normal -0.518773 0 -0.854912
    outer loop
      vertex -53.73 212 -84.3391
      vertex -50 212 -86.6025
      vertex -53.73 0 -84.3391
    endloop
  endfacet
  facet normal -0.518773 0 -0.854912
    outer loop
      vertex -53.73 0 -84.3391
      vertex -50 212 -86.6025
      vertex -50 0 -86.6025
    endloop
  endfacet
  facet normal -0.480989 0 -0.876727
    outer loop
      vertex -50 212 -86.6025
      vertex -46.1749 212 -88.7011
      vertex -50 0 -86.6025
    endloop
  endfacet
  facet normal -0.480989 0 -0.876727
    outer loop
      vertex -50 0 -86.6025
      vertex -46.1749 212 -88.7011
      vertex -46.1749 0 -88.7011
    endloop
  endfacet
  facet normal -0.442288 0 -0.896873
    outer loop
      vertex -46.1749 212 -88.7011
      vertex -42.2618 212 -90.6308
      vertex -46.1749 0 -88.7011
    endloop
  endfacet
  facet normal -0.442288 0 -0.896873
    outer loop
      vertex -46.1749 0 -88.7011
      vertex -42.2618 212 -90.6308
      vertex -42.2618 0 -90.6308
    endloop
  endfacet
  facet normal -0.402747 0 -0.915312
    outer loop
      vertex -42.2618 212 -90.6308
      vertex -38.2683 212 -92.388
      vertex -42.2618 0 -90.6308
    endloop
  endfacet
  facet normal -0.402747 0 -0.915312
    outer loop
      vertex -42.2618 0 -90.6308
      vertex -38.2683 212 -92.388
      vertex -38.2683 0 -92.388
    endloop
  endfacet
  facet normal -0.362438 0 -0.932008
    outer loop
      vertex -38.2683 212 -92.388
      vertex -34.202 212 -93.9693
      vertex -38.2683 0 -92.388
    endloop
  endfacet
  facet normal -0.362438 0 -0.932008
    outer loop
      vertex -38.2683 0 -92.388
      vertex -34.202 212 -93.9693
      vertex -34.202 0 -93.9693
    endloop
  endfacet
  facet normal -0.321439 0 -0.94693
    outer loop
      vertex -34.202 212 -93.9693
      vertex -30.0706 212 -95.3717
      vertex -34.202 0 -93.9693
    endloop
  endfacet
  facet normal -0.321439 0 -0.94693
    outer loop
      vertex -34.202 0 -93.9693
      vertex -30.0706 212 -95.3717
      vertex -30.0706 0 -95.3717
    endloop
  endfacet
  facet normal -0.279829 0 -0.96005
    outer loop
      vertex -30.0706 212 -95.3717
      vertex -25.8819 212 -96.5926
      vertex -30.0706 0 -95.3717
    endloop
  endfacet
  facet normal -0.279829 0 -0.96005
    outer loop
      vertex -30.0706 0 -95.3717
      vertex -25.8819 212 -96.5926
      vertex -25.8819 0 -96.5926
    endloop
  endfacet
  facet normal -0.237685 0 -0.971342
    outer loop
      vertex -25.8819 212 -96.5926
      vertex -21.644 212 -97.6296
      vertex -25.8819 0 -96.5926
    endloop
  endfacet
  facet normal -0.237685 0 -0.971342
    outer loop
      vertex -25.8819 0 -96.5926
      vertex -21.644 212 -97.6296
      vertex -21.644 0 -97.6296
    endloop
  endfacet
  facet normal -0.195091 0 -0.980785
    outer loop
      vertex -21.644 212 -97.6296
      vertex -17.3648 212 -98.4808
      vertex -21.644 0 -97.6296
    endloop
  endfacet
  facet normal -0.195091 0 -0.980785
    outer loop
      vertex -21.644 0 -97.6296
      vertex -17.3648 212 -98.4808
      vertex -17.3648 0 -98.4808
    endloop
  endfacet
  facet normal -0.152124 0 -0.988361
    outer loop
      vertex -17.3648 212 -98.4808
      vertex -13.0526 212 -99.1445
      vertex -17.3648 0 -98.4808
    endloop
  endfacet
  facet normal -0.152124 0 -0.988361
    outer loop
      vertex -17.3648 0 -98.4808
      vertex -13.0526 212 -99.1445
      vertex -13.0526 0 -99.1445
    endloop
  endfacet
  facet normal -0.108867 0 -0.994056
    outer loop
      vertex -13.0526 212 -99.1445
      vertex -8.71557 212 -99.6195
      vertex -13.0526 0 -99.1445
    endloop
  endfacet
  facet normal -0.108867 0 -0.994056
    outer loop
      vertex -13.0526 0 -99.1445
      vertex -8.71557 212 -99.6195
      vertex -8.71557 0 -99.6195
    endloop
  endfacet
  facet normal -0.0654025 0 -0.997859
    outer loop
      vertex -8.71557 212 -99.6195
      vertex -4.36194 212 -99.9048
      vertex -8.71557 0 -99.6195
    endloop
  endfacet
  facet normal -0.0654025 0 -0.997859
    outer loop
      vertex -8.71557 0 -99.6195
      vertex -4.36194 212 -99.9048
      vertex -4.36194 0 -99.9048
    endloop
  endfacet
  facet normal -0.0218156 0 -0.999762
    outer loop
      vertex -4.36194 212 -99.9048
      vertex -2.83277e-14 212 -100
      vertex -4.36194 0 -99.9048
    endloop
  endfacet
  facet normal -0.0218156 0 -0.999762
    outer loop
      vertex -4.36194 0 -99.9048
      vertex -2.83277e-14 212 -100
      vertex -2.83277e-14 0 -100
    endloop
  endfacet
  facet normal 0.0218156 0 -0.999762
    outer loop
      vertex -2.83277e-14 212 -100
      vertex 4.36194 212 -99.9048
      vertex -2.83277e-14 0 -100
    endloop
  endfacet
  facet normal 0.0218156 0 -0.999762
    outer loop
      vertex -2.83277e-14 0 -100
      vertex 4.36194 212 -99.9048
      vertex 4.36194 0 -99.9048
    endloop
  endfacet
  facet normal 0.0654025 0 -0.997859
    outer loop
      vertex 4.36194 212 -99.9048
      vertex 8.71557 212 -99.6195
      vertex 4.36194 0 -99.9048
    endloop
  endfacet
  facet normal 0.0654025 0 -0.997859
    outer loop
      vertex 4.36194 0 -99.9048
      vertex 8.71557 212 -99.6195
      vertex 8.71557 0 -99.6195
    endloop
  endfacet
  facet normal 0.108867 0 -0.994056
    outer loop
      vertex 8.71557 212 -99.6195
      vertex 13.0526 212 -99.1445
      vertex 8.71557 0 -99.6195
    endloop
  endfacet
  facet normal 0.108867 0 -0.994056
    outer loop
      vertex 8.71557 0 -99.6195
      vertex 13.0526 212 -99.1445
      vertex 13.0526 0 -99.1445
    endloop
  endfacet
  facet normal 0.152124 0 -0.988361
    outer loop
      vertex 13.0526 212 -99.1445
      vertex 17.3648 212 -98.4808
      vertex 13.0526 0 -99.1445
    endloop
  endfacet
  facet normal 0.152124 0 -0.988361
    outer loop
      vertex 13.0526 0 -99.1445
      vertex 17.3648 212 -98.4808
      vertex 17.3648 0 -98.4808
    endloop
  endfacet
  facet normal 0.195091 0 -0.980785
    outer loop
      vertex 17.3648 212 -98.4808
      vertex 21.644 212 -97.6296
      vertex 17.3648 0 -98.4808
    endloop
  endfacet
  facet normal 0.195091 0 -0.980785
    outer loop
      vertex 17.3648 0 -98.4808
      vertex 21.644 212 -97.6296
      vertex 21.644 0 -97.6296
    endloop
  endfacet
  facet normal 0.237685 0 -0.971342
    outer loop
      vertex 21.644 212 -97.6296
      vertex 25.8819 212 -96.5926
      vertex 21.644 0 -97.6296
    endloop
  endfacet
  facet normal 0.237685 0 -0.971342
    outer loop
      vertex 21.644 0 -97.6296
      vertex 25.8819 212 -96.5926
      vertex 25.8819 0 -96.5926
    endloop
  endfacet
  facet normal 0.279829 0 -0.96005
    outer loop
      vertex 25.8819 212 -96.5926
      vertex 30.0706 212 -95.3717
      vertex 25.8819 0 -96.5926
    endloop
  endfacet
  facet normal 0.279829 0 -0.96005
    outer loop
      vertex 25.8819 0 -96.5926
      vertex 30.0706 212 -95.3717
      vertex 30.0706 0 -95.3717
    endloop
  endfacet
  facet normal 0.321439 0 -0.94693
    outer loop
      vertex 30.0706 212 -95.3717
      vertex 34.202 212 -93.9693
      vertex 30.0706 0 -95.3717
    endloop
  endfacet
  facet normal 0.321439 0 -0.94693
    outer loop
      vertex 30.0706 0 -95.3717
      vertex 34.202 212 -93.9693
      vertex 34.202 0 -93.9693
    endloop
  endfacet
  facet normal 0.362438 0 -0.932008
    outer loop
      vertex 34.202 212 -93.9693
      vertex 38.2683 212 -92.388
      vertex 34.202 0 -93.9693
    endloop
  endfacet
  facet normal 0.362438 0 -0.932008
    outer loop
      vertex 34.202 0 -93.9693
      vertex 38.2683 212 -92.388
      vertex 38.2683 0 -92.388
    endloop
  endfacet
  facet normal 0.402747 0 -0.915312
    outer loop
      vertex 38.2683 212 -92.388
      vertex 42.2618 212 -90.6308
      vertex 38.2683 0 -92.388
    endloop
  endfacet
  facet normal 0.402747 0 -0.915312
    outer loop
      vertex 38.2683 0 -92.388
      vertex 42.2618 212 -90.6308
      vertex 42.2618 0 -90.6308
    endloop
  endfacet
  facet normal 0.442288 0 -0.896873
    outer loop
      vertex 42.2618 212 -90.6308
      vertex 46.1749 212 -88.7011
      vertex 42.2618 0 -90.6308
    endloop
  endfacet
  facet normal 0.442288 0 -0.896873
    outer loop
      vertex 42.2618 0 -90.6308
      vertex 46.1749 212 -88.7011
      vertex 46.1749 0 -88.7011
    endloop
  endfacet
  facet normal 0.480989 0 -0.876727
    outer loop
      vertex 46.1749 212 -88.7011
      vertex 50 212 -86.6025
      vertex 46.1749 0 -88.7011
    endloop
  endfacet
  facet normal 0.480989 0 -0.876727
    outer loop
      vertex 46.1749 0 -88.7011
      vertex 50 212 -86.6025
      vertex 50 0 -86.6025
    endloop
  endfacet
  facet normal 0.518773 0 -0.854912
    outer loop
      vertex 50 212 -86.6025
      vertex 53.73 212 -84.3391
      vertex 50 0 -86.6025
    endloop
  endfacet
  facet normal 0.518773 0 -0.854912
    outer loop
      vertex 50 0 -86.6025
      vertex 53.73 212 -84.3391
      vertex 53.73 0 -84.3391
    endloop
  endfacet
  facet normal 0.55557 0 -0.83147
    outer loop
      vertex 53.73 212 -84.3391
      vertex 57.3576 212 -81.9152
      vertex 53.73 0 -84.3391
    endloop
  endfacet
  facet normal 0.55557 0 -0.83147
    outer loop
      vertex 53.73 0 -84.3391
      vertex 57.3576 212 -81.9152
      vertex 57.3576 0 -81.9152
    endloop
  endfacet
  facet normal 0.59131 0 -0.806444
    outer loop
      vertex 57.3576 212 -81.9152
      vertex 60.8761 212 -79.3353
      vertex 57.3576 0 -81.9152
    endloop
  endfacet
  facet normal 0.59131 0 -0.806444
    outer loop
      vertex 57.3576 0 -81.9152
      vertex 60.8761 212 -79.3353
      vertex 60.8761 0 -79.3353
    endloop
  endfacet
  facet normal 0.625924 0 -0.779884
    outer loop
      vertex 60.8761 212 -79.3353
      vertex 64.2788 212 -76.6044
      vertex 60.8761 0 -79.3353
    endloop
  endfacet
  facet normal 0.625924 0 -0.779884
    outer loop
      vertex 60.8761 0 -79.3353
      vertex 64.2788 212 -76.6044
      vertex 64.2788 0 -76.6044
    endloop
  endfacet
  facet normal 0.659345 0 -0.75184
    outer loop
      vertex 64.2788 212 -76.6044
      vertex 67.559 212 -73.7277
      vertex 64.2788 0 -76.6044
    endloop
  endfacet
  facet normal 0.659345 0 -0.75184
    outer loop
      vertex 64.2788 0 -76.6044
      vertex 67.559 212 -73.7277
      vertex 67.559 0 -73.7277
    endloop
  endfacet
  facet normal 0.691512 0 -0.722365
    outer loop
      vertex 67.559 212 -73.7277
      vertex 70.7107 212 -70.7107
      vertex 67.559 0 -73.7277
    endloop
  endfacet
  facet normal 0.691512 0 -0.722365
    outer loop
      vertex 67.559 0 -73.7277
      vertex 70.7107 212 -70.7107
      vertex 70.7107 0 -70.7107
    endloop
  endfacet
  facet normal 0.722365 0 -0.691512
    outer loop
      vertex 70.7107 212 -70.7107
      vertex 73.7277 212 -67.559
      vertex 70.7107 0 -70.7107
    endloop
  endfacet
  facet normal 0.722365 0 -0.691512
    outer loop
      vertex 70.7107 0 -70.7107
      vertex 73.7277 212 -67.559
      vertex 73.7277 0 -67.559
    endloop
  endfacet
  facet normal 0.75184 0 -0.659345
    outer loop
      vertex 73.7277 212 -67.559
      vertex 76.6044 212 -64.2788
      vertex 73.7277 0 -67.559
    endloop
  endfacet
  facet normal 0.75184 0 -0.659345
    outer loop
      vertex 73.7277 0 -67.559
      vertex 76.6044 212 -64.2788
      vertex 76.6044 0 -64.2788
    endloop
  endfacet
  facet normal 0.779884 0 -0.625924
    outer loop
      vertex 76.6044 212 -64.2788
      vertex 79.3353 212 -60.8761
      vertex 76.6044 0 -64.2788
    endloop
  endfacet
  facet normal 0.779884 0 -0.625924
    outer loop
      vertex 76.6044 0 -64.2788
      vertex 79.3353 212 -60.8761
      vertex 79.3353 0 -60.8761
    endloop
  endfacet
  facet normal 0.806444 0 -0.59131
    outer loop
      vertex 79.3353 212 -60.8761
      vertex 81.9152 212 -57.3576
      vertex 79.3353 0 -60.8761
    endloop
  endfacet
  facet normal 0.806444 0 -0.59131
    outer loop
      vertex 79.3353 0 -60.8761
      vertex 81.9152 212 -57.3576
      vertex 81.9152 0 -57.3576
    endloop
  endfacet
  facet normal 0.83147 0 -0.55557
    outer loop
      vertex 81.9152 212 -57.3576
      vertex 84.3391 212 -53.73
      vertex 81.9152 0 -57.3576
    endloop
  endfacet
  facet normal 0.83147 0 -0.55557
    outer loop
      vertex 81.9152 0 -57.3576
      vertex 84.3391 212 -53.73
      vertex 84.3391 0 -53.73
    endloop
  endfacet
  facet normal 0.854912 0 -0.518773
    outer loop
      vertex 84.3391 212 -53.73
      vertex 86.6025 212 -50
      vertex 84.3391 0 -53.73
    endloop
  endfacet
  facet normal 0.854912 0 -0.518773
    outer loop
      vertex 84.3391 0 -53.73
      vertex 86.6025 212 -50
      vertex 86.6025 0 -50
    endloop
  endfacet
  facet normal 0.876727 0 -0.480989
    outer loop
      vertex 86.6025 212 -50
      vertex 88.7011 212 -46.1749
      vertex 86.6025 0 -50
    endloop
  endfacet
  facet normal 0.876727 0 -0.480989
    outer loop
      vertex 86.6025 0 -50
      vertex 88.7011 212 -46.1749
      vertex 88.7011 0 -46.1749
    endloop
  endfacet
  facet normal 0.896873 0 -0.442288
    outer loop
      vertex 88.7011 212 -46.1749
      vertex 90.6308 212 -42.2618
      vertex 88.7011 0 -46.1749
    endloop
  endfacet
  facet normal 0.896873 0 -0.442288
    outer loop
      vertex 88.7011 0 -46.1749
      vertex 90.6308 212 -42.2618
      vertex 90.6308 0 -42.2618
    endloop
  endfacet
  facet normal 0.915312 0 -0.402747
    outer loop
      vertex 90.6308 212 -42.2618
      vertex 92.388 212 -38.2683
      vertex 90.6308 0 -42.2618
    endloop
  endfacet
  facet normal 0.915312 0 -0.402747
    outer loop
      vertex 90.6308 0 -42.2618
      vertex 92.388 212 -38.2683
      vertex 92.388 0 -38.2683
    endloop
  endfacet
  facet normal 0.932008 0 -0.362438
    outer loop
      vertex 92.388 212 -38.2683
      vertex 93.9693 212 -34.202
      vertex 92.388 0 -38.2683
    endloop
  endfacet
  facet normal 0.932008 0 -0.362438
    outer loop
      vertex 92.388 0 -38.2683
      vertex 93.9693 212 -34.202
      vertex 93.9693 0 -34.202
    endloop
  endfacet
  facet normal 0.94693 0 -0.321439
    outer loop
      vertex 93.9693 212 -34.202
      vertex 95.3717 212 -30.0706
      vertex 93.9693 0 -34.202
    endloop
  endfacet
  facet normal 0.94693 0 -0.321439
    outer loop
      vertex 93.9693 0 -34.202
      vertex 95.3717 212 -30.0706
      vertex 95.3717 0 -30.0706
    endloop
  endfacet
  facet normal 0.96005 0 -0.279829
    outer loop
      vertex 95.3717 212 -30.0706
      vertex 96.5926 212 -25.8819
      vertex 95.3717 0 -30.0706
    endloop
  endfacet
  facet normal 0.96005 0 -0.279829
    outer loop
      vertex 95.3717 0 -30.0706
      vertex 96.5926 212 -25.8819
      vertex 96.5926 0 -25.8819
    endloop
  endfacet
  facet normal 0.971342 0 -0.237685
    outer loop
      vertex 96.5926 212 -25.8819
      vertex 97.6296 212 -21.644
      vertex 96.5926 0 -25.8819
    endloop
  endfacet
  facet normal 0.971342 0 -0.237685
    outer loop
      vertex 96.5926 0 -25.8819
      vertex 97.6296 212 -21.644
      vertex 97.6296 0 -21.644
    endloop
  endfacet
  facet normal 0.980785 0 -0.195091
    outer loop
      vertex 97.6296 212 -21.644
      vertex 98.4808 212 -17.3648
      vertex 97.6296 0 -21.644
    endloop
  endfacet
  facet normal 0.980785 0 -0.195091
    outer loop
      vertex 97.6296 0 -21.644
      vertex 98.4808 212 -17.3648
      vertex 98.4808 0 -17.3648
    endloop
  endfacet
  facet normal 0.988361 0 -0.152124
    outer loop
      vertex 98.4808 212 -17.3648
      vertex 99.1445 212 -13.0526
      vertex 98.4808 0 -17.3648
    endloop
  endfacet
  facet normal 0.988361 0 -0.152124
    outer loop
      vertex 98.4808 0 -17.3648
      vertex 99.1445 212 -13.0526
      vertex 99.1445 0 -13.0526
    endloop
  endfacet
  facet normal 0.994056 0 -0.108867
    outer loop
      vertex 99.1445 212 -13.0526
      vertex 99.6195 212 -8.71557
      vertex 99.1445 0 -13.0526
    endloop
  endfacet
  facet normal 0.994056 0 -0.108867
    outer loop
      vertex 99.1445 0 -13.0526
      vertex 99.6195 212 -8.71557
      vertex 99.6195 0 -8.71557
    endloop
  endfacet
  facet normal 0.997859 0 -0.0654025
    outer loop
      vertex 99.6195 212 -8.71557
      vertex 99.9048 212 -4.36194
      vertex 99.6195 0 -8.71557
    endloop
  endfacet
  facet normal 0.997859 0 -0.0654025
    outer loop
      vertex 99.6195 0 -8.71557
      vertex 99.9048 212 -4.36194
      vertex 99.9048 0 -4.36194
    endloop
  endfacet
  facet normal 0.999762 0 -0.0218156
    outer loop
      vertex 99.9048 212 -4.36194
      vertex 100 212 -4.28626e-14
      vertex 99.9048 0 -4.36194
    endloop
  endfacet
  facet normal 0.999762 -2.4611e-18 -0.0218156
    outer loop
      vertex 99.9048 0 -4.36194
      vertex 100 212 -4.28626e-14
      vertex 100 0 -1.83697e-14
    endloop
  endfacet
  facet normal 0.999762 2.52042e-18 0.0218156
    outer loop
      vertex 100 212 -4.28626e-14
      vertex 99.9048 212 4.36194
      vertex 100 0 -1.83697e-14
    endloop
  endfacet
  facet normal 0.999762 0 0.0218156
    outer loop
      vertex 100 0 -1.83697e-14
      vertex 99.9048 212 4.36194
      vertex 99.9048 0 4.36194
    endloop
  endfacet
  facet normal 0.997859 0 0.0654025
    outer loop
      vertex 99.9048 212 4.36194
      vertex 99.6195 212 8.71557
      vertex 99.9048 0 4.36194
    endloop
  endfacet
  facet normal 0.997859 0 0.0654025
    outer loop
      vertex 99.9048 0 4.36194
      vertex 99.6195 212 8.71557
      vertex 99.6195 0 8.71557
    endloop
  endfacet
  facet normal 0.994056 0 0.108867
    outer loop
      vertex 99.6195 212 8.71557
      vertex 99.1445 212 13.0526
      vertex 99.6195 0 8.71557
    endloop
  endfacet
  facet normal 0.994056 0 0.108867
    outer loop
      vertex 99.6195 0 8.71557
      vertex 99.1445 212 13.0526
      vertex 99.1445 0 13.0526
    endloop
  endfacet
  facet normal 0.988361 0 0.152124
    outer loop
      vertex 99.1445 212 13.0526
      vertex 98.4808 212 17.3648
      vertex 99.1445 0 13.0526
    endloop
  endfacet
  facet normal 0.988361 0 0.152124
    outer loop
      vertex 99.1445 0 13.0526
      vertex 98.4808 212 17.3648
      vertex 98.4808 0 17.3648
    endloop
  endfacet
  facet normal 0.980785 0 0.195091
    outer loop
      vertex 98.4808 212 17.3648
      vertex 97.6296 212 21.644
      vertex 98.4808 0 17.3648
    endloop
  endfacet
  facet normal 0.980785 0 0.195091
    outer loop
      vertex 98.4808 0 17.3648
      vertex 97.6296 212 21.644
      vertex 97.6296 0 21.644
    endloop
  endfacet
  facet normal 0.971342 0 0.237685
    outer loop
      vertex 97.6296 212 21.644
      vertex 96.5926 212 25.8819
      vertex 97.6296 0 21.644
    endloop
  endfacet
  facet normal 0.971342 0 0.237685
    outer loop
      vertex 97.6296 0 21.644
      vertex 96.5926 212 25.8819
      vertex 96.5926 0 25.8819
    endloop
  endfacet
  facet normal 0.96005 0 0.279829
    outer loop
      vertex 96.5926 212 25.8819
      vertex 95.3717 212 30.0706
      vertex 96.5926 0 25.8819
    endloop
  endfacet
  facet normal 0.96005 0 0.279829
    outer loop
      vertex 96.5926 0 25.8819
      vertex 95.3717 212 30.0706
      vertex 95.3717 0 30.0706
    endloop
  endfacet
  facet normal 0.94693 0 0.321439
    outer loop
      vertex 95.3717 212 30.0706
      vertex 93.9693 212 34.202
      vertex 95.3717 0 30.0706
    endloop
  endfacet
  facet normal 0.94693 0 0.321439
    outer loop
      vertex 95.3717 0 30.0706
      vertex 93.9693 212 34.202
      vertex 93.9693 0 34.202
    endloop
  endfacet
  facet normal 0.932008 0 0.362438
    outer loop
      vertex 93.9693 212 34.202
      vertex 92.388 212 38.2683
      vertex 93.9693 0 34.202
    endloop
  endfacet
  facet normal 0.932008 0 0.362438
    outer loop
      vertex 93.9693 0 34.202
      vertex 92.388 212 38.2683
      vertex 92.388 0 38.2683
    endloop
  endfacet
  facet normal 0.915312 0 0.402747
    outer loop
      vertex 92.388 212 38.2683
      vertex 90.6308 212 42.2618
      vertex 92.388 0 38.2683
    endloop
  endfacet
  facet normal 0.915312 0 0.402747
    outer loop
      vertex 92.388 0 38.2683
      vertex 90.6308 212 42.2618
      vertex 90.6308 0 42.2618
    endloop
  endfacet
  facet normal 0.896873 0 0.442288
    outer loop
      vertex 90.6308 212 42.2618
      vertex 88.7011 212 46.1749
      vertex 90.6308 0 42.2618
    endloop
  endfacet
  facet normal 0.896873 0 0.442288
    outer loop
      vertex 90.6308 0 42.2618
      vertex 88.7011 212 46.1749
      vertex 88.7011 0 46.1749
    endloop
  endfacet
  facet normal 0.876727 0 0.480989
    outer loop
      vertex 88.7011 212 46.1749
      vertex 86.6025 212 50
      vertex 88.7011 0 46.1749
    endloop
  endfacet
  facet normal 0.876727 0 0.480989
    outer loop
      vertex 88.7011 0 46.1749
      vertex 86.6025 212 50
      vertex 86.6025 0 50
    endloop
  endfacet
  facet normal 0.854912 0 0.518773
    outer loop
      vertex 86.6025 212 50
      vertex 84.3391 212 53.73
      vertex 86.6025 0 50
    endloop
  endfacet
  facet normal 0.854912 0 0.518773
    outer loop
      vertex 86.6025 0 50
      vertex 84.3391 212 53.73
      vertex 84.3391 0 53.73
    endloop
  endfacet
  facet normal 0.83147 0 0.55557
    outer loop
      vertex 84.3391 212 53.73
      vertex 81.9152 212 57.3576
      vertex 84.3391 0 53.73
    endloop
  endfacet
  facet normal 0.83147 0 0.55557
    outer loop
      vertex 84.3391 0 53.73
      vertex 81.9152 212 57.3576
      vertex 81.9152 0 57.3576
    endloop
  endfacet
  facet normal 0.806444 0 0.59131
    outer loop
      vertex 81.9152 212 57.3576
      vertex 79.3353 212 60.8761
      vertex 81.9152 0 57.3576
    endloop
  endfacet
  facet normal 0.806444 0 0.59131
    outer loop
      vertex 81.9152 0 57.3576
      vertex 79.3353 212 60.8761
      vertex 79.3353 0 60.8761
    endloop
  endfacet
  facet normal 0.779884 0 0.625924
    outer loop
      vertex 79.3353 212 60.8761
      vertex 76.6044 212 64.2788
      vertex 79.3353 0 60.8761
    endloop
  endfacet
  facet normal 0.779884 0 0.625924
    outer loop
      vertex 79.3353 0 60.8761
      vertex 76.6044 212 64.2788
      vertex 76.6044 0 64.2788
    endloop
  endfacet
  facet normal 0.75184 0 0.659345
    outer loop
      vertex 76.6044 212 64.2788
      vertex 73.7277 212 67.559
      vertex 76.6044 0 64.2788
    endloop
  endfacet
  facet normal 0.75184 0 0.659345
    outer loop
      vertex 76.6044 0 64.2788
      vertex 73.7277 212 67.559
      vertex 73.7277 0 67.559
    endloop
  endfacet
  facet normal 0.722365 0 0.691512
    outer loop
      vertex 73.7277 212 67.559
      vertex 70.7107 212 70.7107
      vertex 73.7277 0 67.559
    endloop
  endfacet
  facet normal 0.722365 0 0.691512
    outer loop
      vertex 73.7277 0 67.559
      vertex 70.7107 212 70.7107
      vertex 70.7107 0 70.7107
    endloop
  endfacet
  facet normal 0.691512 0 0.722365
    outer loop
      vertex 70.7107 212 70.7107
      vertex 67.559 212 73.7277
      vertex 70.7107 0 70.7107
    endloop
  endfacet
  facet normal 0.691512 0 0.722365
    outer loop
      vertex 70.7107 0 70.7107
      vertex 67.559 212 73.7277
      vertex 67.559 0 73.7277
    endloop
  endfacet
  facet normal 0.659345 0 0.75184
    outer loop
      vertex 67.559 212 73.7277
      vertex 64.2788 212 76.6044
      vertex 67.559 0 73.7277
    endloop
  endfacet
  facet normal 0.659345 0 0.75184
    outer loop
      vertex 67.559 0 73.7277
      vertex 64.2788 212 76.6044
      vertex 64.2788 0 76.6044
    endloop
  endfacet
  facet normal 0.625924 0 0.779884
    outer loop
      vertex 64.2788 212 76.6044
      vertex 60.8761 212 79.3353
      vertex 64.2788 0 76.6044
    endloop
  endfacet
  facet normal 0.625924 0 0.779884
    outer loop
      vertex 64.2788 0 76.6044
      vertex 60.8761 212 79.3353
      vertex 60.8761 0 79.3353
    endloop
  endfacet
  facet normal 0.59131 0 0.806444
    outer loop
      vertex 60.8761 212 79.3353
      vertex 57.3576 212 81.9152
      vertex 60.8761 0 79.3353
    endloop
  endfacet
  facet normal 0.59131 0 0.806444
    outer loop
      vertex 60.8761 0 79.3353
      vertex 57.3576 212 81.9152
      vertex 57.3576 0 81.9152
    endloop
  endfacet
  facet normal 0.55557 0 0.83147
    outer loop
      vertex 57.3576 212 81.9152
      vertex 53.73 212 84.3391
      vertex 57.3576 0 81.9152
    endloop
  endfacet
  facet normal 0.55557 0 0.83147
    outer loop
      vertex 57.3576 0 81.9152
      vertex 53.73 212 84.3391
      vertex 53.73 0 84.3391
    endloop
  endfacet
  facet normal 0.518773 0 0.854912
    outer loop
      vertex 53.73 212 84.3391
      vertex 50 212 86.6025
      vertex 53.73 0 84.3391
    endloop
  endfacet
  facet normal 0.518773 0 0.854912
    outer loop
      vertex 53.73 0 84.3391
      vertex 50 212 86.6025
      vertex 50 0 86.6025
    endloop
  endfacet
  facet normal 0.480989 0 0.876727
    outer loop
      vertex 50 212 86.6025
      vertex 46.1749 212 88.7011
      vertex 50 0 86.6025
    endloop
  endfacet
  facet normal 0.480989 0 0.876727
    outer loop
      vertex 50 0 86.6025
      vertex 46.1749 212 88.7011
      vertex 46.1749 0 88.7011
    endloop
  endfacet
  facet normal 0.442288 0 0.896873
    outer loop
      vertex 46.1749 212 88.7011
      vertex 42.2618 212 90.6308
      vertex 46.1749 0 88.7011
    endloop
  endfacet
  facet normal 0.442288 0 0.896873
    outer loop
      vertex 46.1749 0 88.7011
      vertex 42.2618 212 90.6308
      vertex 42.2618 0 90.6308
    endloop
  endfacet
  facet normal 0.402747 0 0.915312
    outer loop
      vertex 42.2618 212 90.6308
      vertex 38.2683 212 92.388
      vertex 42.2618 0 90.6308
    endloop
  endfacet
  facet normal 0.402747 0 0.915312
    outer loop
      vertex 42.2618 0 90.6308
      vertex 38.2683 212 92.388
      vertex 38.2683 0 92.388
    endloop
  endfacet
  facet normal 0.362438 0 0.932008
    outer loop
      vertex 38.2683 212 92.388
      vertex 34.202 212 93.9693
      vertex 38.2683 0 92.388
    endloop
  endfacet
  facet normal 0.362438 0 0.932008
    outer loop
      vertex 38.2683 0 92.388
      vertex 34.202 212 93.9693
      vertex 34.202 0 93.9693
    endloop
  endfacet
  facet normal 0.321439 0 0.94693
    outer loop
      vertex 34.202 212 93.9693
      vertex 30.0706 212 95.3717
      vertex 34.202 0 93.9693
    endloop
  endfacet
  facet normal 0.321439 0 0.94693
    outer loop
      vertex 34.202 0 93.9693
      vertex 30.0706 212 95.3717
      vertex 30.0706 0 95.3717
    endloop
  endfacet
  facet normal 0.279829 0 0.96005
    outer loop
      vertex 30.0706 212 95.3717
      vertex 25.8819 212 96.5926
      vertex 30.0706 0 95.3717
    endloop
  endfacet
  facet normal 0.279829 0 0.96005
    outer loop
      vertex 30.0706 0 95.3717
      vertex 25.8819 212 96.5926
      vertex 25.8819 0 96.5926
    endloop
  endfacet
  facet normal 0.237685 0 0.971342
    outer loop
      vertex 25.8819 212 96.5926
      vertex 21.644 212 97.6296
      vertex 25.8819 0 96.5926
    endloop
  endfacet
  facet normal 0.237685 0 0.971342
    outer loop
      vertex 25.8819 0 96.5926
      vertex 21.644 212 97.6296
      vertex 21.644 0 97.6296
    endloop
  endfacet
  facet normal 0.195091 0 0.980785
    outer loop
      vertex 21.644 212 97.6296
      vertex 17.3648 212 98.4808
      vertex 21.644 0 97.6296
    endloop
  endfacet
  facet normal 0.195091 0 0.980785
    outer loop
      vertex 21.644 0 97.6296
      vertex 17.3648 212 98.4808
      vertex 17.3648 0 98.4808
    endloop
  endfacet
  facet normal 0.152124 0 0.988361
    outer loop
      vertex 17.3648 212 98.4808
      vertex 13.0526 212 99.1445
      vertex 17.3648 0 98.4808
    endloop
  endfacet
  facet normal 0.152124 0 0.988361
    outer loop
      vertex 17.3648 0 98.4808
      vertex 13.0526 212 99.1445
      vertex 13.0526 0 99.1445
    endloop
  endfacet
  facet normal 0.108867 0 0.994056
    outer loop
      vertex 13.0526 212 99.1445
      vertex 8.71557 212 99.6195
      vertex 13.0526 0 99.1445
    endloop
  endfacet
  facet normal 0.108867 0 0.994056
    outer loop
      vertex 13.0526 0 99.1445
      vertex 8.71557 212 99.6195
      vertex 8.71557 0 99.6195
    endloop
  endfacet
  facet normal 0.0654025 0 0.997859
    outer loop
      vertex 8.71557 212 99.6195
      vertex 4.36194 212 99.9048
      vertex 8.71557 0 99.6195
    endloop
  endfacet
  facet normal 0.0654025 0 0.997859
    outer loop
      vertex 8.71557 0 99.6195
      vertex 4.36194 212 99.9048
      vertex 4.36194 0 99.9048
    endloop
  endfacet
  facet normal 0.0218156 0 0.999762
    outer loop
      vertex 4.36194 212 99.9048
      vertex 1.83697e-14 212 100
      vertex 4.36194 0 99.9048
    endloop
  endfacet
  facet normal 0.0218156 0 0.999762
    outer loop
      vertex 4.36194 0 99.9048
      vertex 1.83697e-14 212 100
      vertex 1.83697e-14 0 100
    endloop
  endfacet
  facet normal -0.0218156 0 0.999762
    outer loop
      vertex 1.83697e-14 212 100
      vertex -4.36194 212 99.9048
      vertex 1.83697e-14 0 100
    endloop
  endfacet
  facet normal -0.0218156 0 0.999762
    outer loop
      vertex 1.83697e-14 0 100
      vertex -4.36194 212 99.9048
      vertex -4.36194 0 99.9048
    endloop
  endfacet
  facet normal -0.0654025 0 0.997859
    outer loop
      vertex -4.36194 212 99.9048
      vertex -8.71557 212 99.6195
      vertex -4.36194 0 99.9048
    endloop
  endfacet
  facet normal -0.0654025 0 0.997859
    outer loop
      vertex -4.36194 0 99.9048
      vertex -8.71557 212 99.6195
      vertex -8.71557 0 99.6195
    endloop
  endfacet
  facet normal -0.108867 0 0.994056
    outer loop
      vertex -8.71557 212 99.6195
      vertex -13.0526 212 99.1445
      vertex -8.71557 0 99.6195
    endloop
  endfacet
  facet normal -0.108867 0 0.994056
    outer loop
      vertex -8.71557 0 99.6195
      vertex -13.0526 212 99.1445
      vertex -13.0526 0 99.1445
    endloop
  endfacet
  facet normal -0.152124 0 0.988361
    outer loop
      vertex -13.0526 212 99.1445
      vertex -17.3648 212 98.4808
      vertex -13.0526 0 99.1445
    endloop
  endfacet
  facet normal -0.152124 0 0.988361
    outer loop
      vertex -13.0526 0 99.1445
      vertex -17.3648 212 98.4808
      vertex -17.3648 0 98.4808
    endloop
  endfacet
  facet normal -0.195091 0 0.980785
    outer loop
      vertex -17.3648 212 98.4808
      vertex -21.644 212 97.6296
      vertex -17.3648 0 98.4808
    endloop
  endfacet
  facet normal -0.195091 0 0.980785
    outer loop
      vertex -17.3648 0 98.4808
      vertex -21.644 212 97.6296
      vertex -21.644 0 97.6296
    endloop
  endfacet
  facet normal -0.237685 0 0.971342
    outer loop
      vertex -21.644 212 97.6296
      vertex -25.8819 212 96.5926
      vertex -21.644 0 97.6296
    endloop
  endfacet
  facet normal -0.237685 0 0.971342
    outer loop
      vertex -21.644 0 97.6296
      vertex -25.8819 212 96.5926
      vertex -25.8819 0 96.5926
    endloop
  endfacet
  facet normal -0.279829 0 0.96005
    outer loop
      vertex -25.8819 212 96.5926
      vertex -30.0706 212 95.3717
      vertex -25.8819 0 96.5926
    endloop
  endfacet
  facet normal -0.279829 0 0.96005
    outer loop
      vertex -25.8819 0 96.5926
      vertex -30.0706 212 95.3717
      vertex -30.0706 0 95.3717
    endloop
  endfacet
  facet normal -0.321439 0 0.94693
    outer loop
      vertex -30.0706 212 95.3717
      vertex -34.202 212 93.9693
      vertex -30.0706 0 95.3717
    endloop
  endfacet
  facet normal -0.321439 0 0.94693
    outer loop
      vertex -30.0706 0 95.3717
      vertex -34.202 212 93.9693
      vertex -34.202 0 93.9693
    endloop
  endfacet
  facet normal -0.362438 0 0.932008
    outer loop
      vertex -34.202 212 93.9693
      vertex -38.2683 212 92.388
      vertex -34.202 0 93.9693
    endloop
  endfacet
  facet normal -0.362438 0 0.932008
    outer loop
      vertex -34.202 0 93.9693
      vertex -38.2683 212 92.388
      vertex -38.2683 0 92.388
    endloop
  endfacet
  facet normal -0.402747 0 0.915312
    outer loop
      vertex -38.2683 212 92.388
      vertex -42.2618 212 90.6308
      vertex -38.2683 0 92.388
    endloop
  endfacet
  facet normal -0.402747 0 0.915312
    outer loop
      vertex -38.2683 0 92.388
      vertex -42.2618 212 90.6308
      vertex -42.2618 0 90.6308
    endloop
  endfacet
  facet normal -0.442288 0 0.896873
    outer loop
      vertex -42.2618 212 90.6308
      vertex -46.1749 212 88.7011
      vertex -42.2618 0 90.6308
    endloop
  endfacet
  facet normal -0.442288 0 0.896873
    outer loop
      vertex -42.2618 0 90.6308
      vertex -46.1749 212 88.7011
      vertex -46.1749 0 88.7011
    endloop
  endfacet
  facet normal -0.480989 0 0.876727
    outer loop
      vertex -46.1749 212 88.7011
      vertex -50 212 86.6025
      vertex -46.1749 0 88.7011
    endloop
  endfacet
  facet normal -0.480989 0 0.876727
    outer loop
      vertex -46.1749 0 88.7011
      vertex -50 212 86.6025
      vertex -50 0 86.6025
    endloop
  endfacet
  facet normal -0.518773 0 0.854912
    outer loop
      vertex -50 212 86.6025
      vertex -53.73 212 84.3391
      vertex -50 0 86.6025
    endloop
  endfacet
  facet normal -0.518773 0 0.854912
    outer loop
      vertex -50 0 86.6025
      vertex -53.73 212 84.3391
      vertex -53.73 0 84.3391
    endloop
  endfacet
  facet normal -0.55557 0 0.83147
    outer loop
      vertex -53.73 212 84.3391
      vertex -57.3576 212 81.9152
      vertex -53.73 0 84.3391
    endloop
  endfacet
  facet normal -0.55557 0 0.83147
    outer loop
      vertex -53.73 0 84.3391
      vertex -57.3576 212 81.9152
      vertex -57.3576 0 81.9152
    endloop
  endfacet
  facet normal -0.59131 0 0.806444
    outer loop
      vertex -57.3576 212 81.9152
      vertex -60.8761 212 79.3353
      vertex -57.3576 0 81.9152
    endloop
  endfacet
  facet normal -0.59131 0 0.806444
    outer loop
      vertex -57.3576 0 81.9152
      vertex -60.8761 212 79.3353
      vertex -60.8761 0 79.3353
    endloop
  endfacet
  facet normal -0.625924 0 0.779884
    outer loop
      vertex -60.8761 212 79.3353
      vertex -64.2788 212 76.6044
      vertex -60.8761 0 79.3353
    endloop
  endfacet
  facet normal -0.625924 0 0.779884
    outer loop
      vertex -60.8761 0 79.3353
      vertex -64.2788 212 76.6044
      vertex -64.2788 0 76.6044
    endloop
  endfacet
  facet normal -0.659345 0 0.75184
    outer loop
      vertex -64.2788 212 76.6044
      vertex -67.559 212 73.7277
      vertex -64.2788 0 76.6044
    endloop
  endfacet
  facet normal -0.659345 0 0.75184
    outer loop
      vertex -64.2788 0 76.6044
      vertex -67.559 212 73.7277
      vertex -67.559 0 73.7277
    endloop
  endfacet
  facet normal -0.691512 0 0.722365
    outer loop
      vertex -67.559 212 73.7277
      vertex -70.7107 212 70.7107
      vertex -67.559 0 73.7277
    endloop
  endfacet
  facet normal -0.691512 0 0.722365
    outer loop
      vertex -67.559 0 73.7277
      vertex -70.7107 212 70.7107
      vertex -70.7107 0 70.7107
    endloop
  endfacet
  facet normal -0.722365 0 0.691512
    outer loop
      vertex -70.7107 212 70.7107
      vertex -73.7277 212 67.559
      vertex -70.7107 0 70.7107
    endloop
  endfacet
  facet normal -0.722365 0 0.691512
    outer loop
      vertex -70.7107 0 70.7107
      vertex -73.7277 212 67.559
      vertex -73.7277 0 67.559
    endloop
  endfacet
  facet normal -0.75184 0 0.659345
    outer loop
      vertex -73.7277 212 67.559
      vertex -76.6044 212 64.2788
      vertex -73.7277 0 67.559
    endloop
  endfacet
  facet normal -0.75184 0 0.659345
    outer loop
      vertex -73.7277 0 67.559
      vertex -76.6044 212 64.2788
      vertex -76.6044 0 64.2788
    endloop
  endfacet
  facet normal -0.779884 0 0.625924
    outer loop
      vertex -76.6044 212 64.2788
      vertex -79.3353 212 60.8761
      vertex -76.6044 0 64.2788
    endloop
  endfacet
  facet normal -0.779884 0 0.625924
    outer loop
      vertex -76.6044 0 64.2788
      vertex -79.3353 212 60.8761
      vertex -79.3353 0 60.8761
    endloop
  endfacet
  facet normal -0.806444 0 0.59131
    outer loop
      vertex -79.3353 212 60.8761
      vertex -81.9152 212 57.3576
      vertex -79.3353 0 60.8761
    endloop
  endfacet
  facet normal -0.806444 0 0.59131
    outer loop
      vertex -79.3353 0 60.8761
      vertex -81.9152 212 57.3576
      vertex -81.9152 0 57.3576
    endloop
  endfacet
  facet normal -0.83147 0 0.55557
    outer loop
      vertex -81.9152 212 57.3576
      vertex -84.3391 212 53.73
      vertex -81.9152 0 57.3576
    endloop
  endfacet
  facet normal -0.83147 0 0.55557
    outer loop
      vertex -81.9152 0 57.3576
      vertex -84.3391 212 53.73
      vertex -84.3391 0 53.73
    endloop
  endfacet
  facet normal -0.854912 0 0.518773
    outer loop
      vertex -84.3391 212 53.73
      vertex -86.6025 212 50
      vertex -84.3391 0 53.73
    endloop
  endfacet
  facet normal -0.854912 0 0.518773
    outer loop
      vertex -84.3391 0 53.73
      vertex -86.6025 212 50
      vertex -86.6025 0 50
    endloop
  endfacet
  facet normal -0.876727 0 0.480989
    outer loop
      vertex -86.6025 212 50
      vertex -88.7011 212 46.1749
      vertex -86.6025 0 50
    endloop
  endfacet
  facet normal -0.876727 0 0.480989
    outer loop
      vertex -86.6025 0 50
      vertex -88.7011 212 46.1749
      vertex -88.7011 0 46.1749
    endloop
  endfacet
  facet normal -0.896873 0 0.442288
    outer loop
      vertex -88.7011 212 46.1749
      vertex -90.6308 212 42.2618
      vertex -88.7011 0 46.1749
    endloop
  endfacet
  facet normal -0.896873 0 0.442288
    outer loop
      vertex -88.7011 0 46.1749
      vertex -90.6308 212 42.2618
      vertex -90.6308 0 42.2618
    endloop
  endfacet
  facet normal -0.915312 0 0.402747
    outer loop
      vertex -90.6308 212 42.2618
      vertex -92.388 212 38.2683
      vertex -90.6308 0 42.2618
    endloop
  endfacet
  facet normal -0.915312 0 0.402747
    outer loop
      vertex -90.6308 0 42.2618
      vertex -92.388 212 38.2683
      vertex -92.388 0 38.2683
    endloop
  endfacet
  facet normal -0.932008 0 0.362438
    outer loop
      vertex -92.388 212 38.2683
      vertex -93.9693 212 34.202
      vertex -92.388 0 38.2683
    endloop
  endfacet
  facet normal -0.932008 0 0.362438
    outer loop
      vertex -92.388 0 38.2683
      vertex -93.9693 212 34.202
      vertex -93.9693 0 34.202
    endloop
  endfacet
  facet normal -0.94693 0 0.321439
    outer loop
      vertex -93.9693 212 34.202
      vertex -95.3717 212 30.0706
      vertex -93.9693 0 34.202
    endloop
  endfacet
  facet normal -0.94693 0 0.321439
    outer loop
      vertex -93.9693 0 34.202
      vertex -95.3717 212 30.0706
      vertex -95.3717 0 30.0706
    endloop
  endfacet
  facet normal -0.96005 0 0.279829
    outer loop
      vertex -95.3717 212 30.0706
      vertex -96.5926 212 25.8819
      vertex -95.3717 0 30.0706
    endloop
  endfacet
  facet normal -0.96005 0 0.279829
    outer loop
      vertex -95.3717 0 30.0706
      vertex -96.5926 212 25.8819
      vertex -96.5926 0 25.8819
    endloop
  endfacet
  facet normal -0.971342 0 0.237685
    outer loop
      vertex -96.5926 212 25.8819
      vertex -97.6296 212 21.644
      vertex -96.5926 0 25.8819
    endloop
  endfacet
  facet normal -0.971342 0 0.237685
    outer loop
      vertex -96.5926 0 25.8819
      vertex -97.6296 212 21.644
      vertex -97.6296 0 21.644
    endloop
  endfacet
  facet normal -0.980785 0 0.195091
    outer loop
      vertex -97.6296 212 21.644
      vertex -98.4808 212 17.3648
      vertex -97.6296 0 21.644
    endloop
  endfacet
  facet normal -0.980785 0 0.195091
    outer loop
      vertex -97.6296 0 21.644
      vertex -98.4808 212 17.3648
      vertex -98.4808 0 17.3648
    endloop
  endfacet
  facet normal -0.988361 0 0.152124
    outer loop
      vertex -98.4808 212 17.3648
      vertex -99.1445 212 13.0526
      vertex -98.4808 0 17.3648
    endloop
  endfacet
  facet normal -0.988361 0 0.152124
    outer loop
      vertex -98.4808 0 17.3648
      vertex -99.1445 212 13.0526
      vertex -99.1445 0 13.0526
    endloop
  endfacet
  facet normal -0.994056 0 0.108867
    outer loop
      vertex -99.1445 212 13.0526
      vertex -99.6195 212 8.71557
      vertex -99.1445 0 13.0526
    endloop
  endfacet
  facet normal -0.994056 0 0.108867
    outer loop
      vertex -99.1445 0 13.0526
      vertex -99.6195 212 8.71557
      vertex -99.6195 0 8.71557
    endloop
  endfacet
  facet normal -0.997859 0 0.0654025
    outer loop
      vertex -99.6195 212 8.71557
      vertex -99.9048 212 4.36194
      vertex -99.6195 0 8.71557
    endloop
  endfacet
  facet normal -0.997859 0 0.0654025
    outer loop
      vertex -99.6195 0 8.71557
      vertex -99.9048 212 4.36194
      vertex -99.9048 0 4.36194
    endloop
  endfacet
  facet normal -0.999762 0 0.0218156
    outer loop
      vertex -99.9048 212 4.36194
      vertex -100 212 -6.12323e-15
      vertex -99.9048 0 4.36194
    endloop
  endfacet
  facet normal -0.999762 0 0.0218156
    outer loop
      vertex -99.9048 0 4.36194
      vertex -100 212 -6.12323e-15
      vertex -100 0 -6.12323e-15
    endloop
  endfacet
  facet normal -0.999762 0 -0.0218156
    outer loop
      vertex -100 212 -6.12323e-15
      vertex -99.9048 212 -4.36194
      vertex -100 0 -6.12323e-15
    endloop
  endfacet
  facet normal 0 1 0
    outer loop
      vertex 67.559 212 73.7277
      vertex 70.7107 212 70.7107
      vertex 50 212 50
    endloop
  endfacet
  facet normal 0 1 0
    outer loop
      vertex -70.7107 212 70.7107
      vertex -67.559 212 73.7277
      vertex -50 212 50
    endloop
  endfacet
  facet normal 0 1 0
    outer loop
      vertex -67.559 212 73.7277
      vertex -64.2788 212 76.6044
      vertex -50 212 50
    endloop
  endfacet
  facet normal 0 1 0
    outer loop
      vertex -50 212 50
      vertex -64.2788 212 76.6044
      vertex -60.8761 212 79.3353
    endloop
  endfacet
  facet normal 0 1 0
    outer loop
      vertex 53.73 212 84.3391
      vertex 57.3576 212 81.9152
      vertex 50 212 50
    endloop
  endfacet
  facet normal 0 1 0
    outer loop
      vertex -50 212 -50
      vertex -95.3717 212 -30.0706
      vertex -96.5926 212 -25.8819
    endloop
  endfacet
  facet normal 0 1 0
    outer loop
      vertex 34.202 212 -93.9693
      vertex 30.0706 212 -95.3717
      vertex 50 212 -50
    endloop
  endfacet
  facet normal 0 1 0
    outer loop
      vertex -96.5926 212 -25.8819
      vertex -97.6296 212 -21.644
      vertex -50 212 -50
    endloop
  endfacet
  facet normal 0 1 0
    outer loop
      vertex -97.6296 212 -21.644
      vertex -98.4808 212 -17.3648
      vertex -50 212 -50
    endloop
  endfacet
  facet normal 0 1 0
    outer loop
      vertex -50 212 -50
      vertex -98.4808 212 -17.3648
      vertex -99.1445 212 -13.0526
    endloop
  endfacet
  facet normal 0 1 0
    outer loop
      vertex -84.3391 212 53.73
      vertex -81.9152 212 57.3576
      vertex -50 212 50
    endloop
  endfacet
  facet normal 0 1 0
    outer loop
      vertex -81.9152 212 57.3576
      vertex -79.3353 212 60.8761
      vertex -50 212 50
    endloop
  endfacet
  facet normal 0 1 0
    outer loop
      vertex -60.8761 212 79.3353
      vertex -57.3576 212 81.9152
      vertex -50 212 50
    endloop
  endfacet
  facet normal 0 1 0
    outer loop
      vertex -57.3576 212 81.9152
      vertex -53.73 212 84.3391
      vertex -50 212 50
    endloop
  endfacet
  facet normal 0 1 0
    outer loop
      vertex -50 212 50
      vertex -53.73 212 84.3391
      vertex -50 212 86.6025
    endloop
  endfacet
  facet normal 0 1 0
    outer loop
      vertex -50 212 86.6025
      vertex -46.1749 212 88.7011
      vertex -50 212 50
    endloop
  endfacet
  facet normal 0 1 0
    outer loop
      vertex -46.1749 212 88.7011
      vertex -42.2618 212 90.6308
      vertex -50 212 50
    endloop
  endfacet
  facet normal 0 1 0
    outer loop
      vertex -50 212 50
      vertex -42.2618 212 90.6308
      vertex -38.2683 212 92.388
    endloop
  endfacet
  facet normal 0 1 0
    outer loop
      vertex 42.2618 212 90.6308
      vertex 46.1749 212 88.7011
      vertex 50 212 50
    endloop
  endfacet
  facet normal 0 1 0
    outer loop
      vertex 46.1749 212 88.7011
      vertex 50 212 86.6025
      vertex 50 212 50
    endloop
  endfacet
  facet normal 0 1 0
    outer loop
      vertex 50 212 50
      vertex 50 212 86.6025
      vertex 53.73 212 84.3391
    endloop
  endfacet
  facet normal 0 1 0
    outer loop
      vertex 57.3576 212 81.9152
      vertex 60.8761 212 79.3353
      vertex 50 212 50
    endloop
  endfacet
  facet normal 0 1 0
    outer loop
      vertex 60.8761 212 79.3353
      vertex 64.2788 212 76.6044
      vertex 50 212 50
    endloop
  endfacet
  facet normal 0 1 0
    outer loop
      vertex 50 212 50
      vertex 64.2788 212 76.6044
      vertex 67.559 212 73.7277
    endloop
  endfacet
  facet normal 0 1 0
    outer loop
      vertex -67.559 212 -73.7277
      vertex -70.7107 212 -70.7107
      vertex -50 212 -50
    endloop
  endfacet
  facet normal 0 1 0
    outer loop
      vertex -70.7107 212 -70.7107
      vertex -73.7277 212 -67.559
      vertex -50 212 -50
    endloop
  endfacet
  facet normal 0 1 0
    outer loop
      vertex -50 212 -50
      vertex -73.7277 212 -67.559
      vertex -76.6044 212 -64.2788
    endloop
  endfacet
  facet normal 0 1 0
    outer loop
      vertex -76.6044 212 -64.2788
      vertex -79.3353 212 -60.8761
      vertex -50 212 -50
    endloop
  endfacet
  facet normal 0 1 0
    outer loop
      vertex -79.3353 212 -60.8761
      vertex -81.9152 212 -57.3576
      vertex -50 212 -50
    endloop
  endfacet
  facet normal 0 1 0
    outer loop
      vertex -50 212 -50
      vertex -81.9152 212 -57.3576
      vertex -84.3391 212 -53.73
    endloop
  endfacet
  facet normal 0 1 0
    outer loop
      vertex -84.3391 212 -53.73
      vertex -86.6025 212 -50
      vertex -50 212 -50
    endloop
  endfacet
  facet normal 0 1 0
    outer loop
      vertex -86.6025 212 -50
      vertex -88.7011 212 -46.1749
      vertex -50 212 -50
    endloop
  endfacet
  facet normal 0 1 0
    outer loop
      vertex -50 212 -50
      vertex -88.7011 212 -46.1749
      vertex -90.6308 212 -42.2618
    endloop
  endfacet
  facet normal 0 1 0
    outer loop
      vertex -99.6195 212 8.71557
      vertex -99.1445 212 13.0526
      vertex -50 212 50
    endloop
  endfacet
  facet normal 0 1 0
    outer loop
      vertex -50 212 50
      vertex -92.388 212 38.2683
      vertex -90.6308 212 42.2618
    endloop
  endfacet
  facet normal 0 1 0
    outer loop
      vertex -79.3353 212 60.8761
      vertex -76.6044 212 64.2788
      vertex -50 212 50
    endloop
  endfacet
  facet normal 0 1 0
    outer loop
      vertex -76.6044 212 64.2788
      vertex -73.7277 212 67.559
      vertex -50 212 50
    endloop
  endfacet
  facet normal 0 1 0
    outer loop
      vertex -50 212 50
      vertex -73.7277 212 67.559
      vertex -70.7107 212 70.7107
    endloop
  endfacet
  facet normal 0 1 0
    outer loop
      vertex 73.7277 212 -67.559
      vertex 70.7107 212 -70.7107
      vertex 50 212 -50
    endloop
  endfacet
  facet normal 0 1 0
    outer loop
      vertex 70.7107 212 -70.7107
      vertex 67.559 212 -73.7277
      vertex 50 212 -50
    endloop
  endfacet
  facet normal 0 1 0
    outer loop
      vertex 67.559 212 -73.7277
      vertex 64.2788 212 -76.6044
      vertex 50 212 -50
    endloop
  endfacet
  facet normal 0 1 0
    outer loop
      vertex 64.2788 212 -76.6044
      vertex 60.8761 212 -79.3353
      vertex 50 212 -50
    endloop
  endfacet
  facet normal 0 1 0
    outer loop
      vertex 50 212 -50
      vertex 60.8761 212 -79.3353
      vertex 57.3576 212 -81.9152
    endloop
  endfacet
  facet normal 0 1 0
    outer loop
      vertex -34.202 212 -93.9693
      vertex -38.2683 212 -92.388
      vertex -50 212 -50
    endloop
  endfacet
  facet normal 0 1 0
    outer loop
      vertex -38.2683 212 -92.388
      vertex -42.2618 212 -90.6308
      vertex -50 212 -50
    endloop
  endfacet
  facet normal 0 1 0
    outer loop
      vertex -50 212 -50
      vertex -42.2618 212 -90.6308
      vertex -46.1749 212 -88.7011
    endloop
  endfacet
  facet normal 0 1 0
    outer loop
      vertex 79.3353 212 60.8761
      vertex 81.9152 212 57.3576
      vertex 50 212 50
    endloop
  endfacet
  facet normal 0 1 0
    outer loop
      vertex 81.9152 212 57.3576
      vertex 84.3391 212 53.73
      vertex 50 212 50
    endloop
  endfacet
  facet normal 0 1 0
    outer loop
      vertex 50 212 50
      vertex 84.3391 212 53.73
      vertex 86.6025 212 50
    endloop
  endfacet
  facet normal 0 1 0
    outer loop
      vertex 86.6025 212 50
      vertex 88.7011 212 46.1749
      vertex 50 212 50
    endloop
  endfacet
  facet normal 0 1 0
    outer loop
      vertex 88.7011 212 46.1749
      vertex 90.6308 212 42.2618
      vertex 50 212 50
    endloop
  endfacet
  facet normal 0 1 0
    outer loop
      vertex 50 212 50
      vertex 90.6308 212 42.2618
      vertex 92.388 212 38.2683
    endloop
  endfacet
  facet normal 0 1 0
    outer loop
      vertex 81.9152 212 -57.3576
      vertex 79.3353 212 -60.8761
      vertex 50 212 -50
    endloop
  endfacet
  facet normal 0 1 0
    outer loop
      vertex 79.3353 212 -60.8761
      vertex 76.6044 212 -64.2788
      vertex 50 212 -50
    endloop
  endfacet
  facet normal 0 1 0
    outer loop
      vertex 50 212 -50
      vertex 76.6044 212 -64.2788
      vertex 73.7277 212 -67.559
    endloop
  endfacet
  facet normal 0 1 0
    outer loop
      vertex -38.2683 212 92.388
      vertex -34.202 212 93.9693
      vertex -50 212 50
    endloop
  endfacet
  facet normal 0 1 0
    outer loop
      vertex -34.202 212 93.9693
      vertex -30.0706 212 95.3717
      vertex -50 212 50
    endloop
  endfacet
  facet normal 0 1 0
    outer loop
      vertex -50 212 50
      vertex -30.0706 212 95.3717
      vertex -25.8819 212 96.5926
    endloop
  endfacet
  facet normal 0 1 0
    outer loop
      vertex -90.6308 212 -42.2618
      vertex -92.388 212 -38.2683
      vertex -50 212 -50
    endloop
  endfacet
  facet normal 0 1 0
    outer loop
      vertex -92.388 212 -38.2683
      vertex -93.9693 212 -34.202
      vertex -50 212 -50
    endloop
  endfacet
  facet normal 0 1 0
    outer loop
      vertex -50 212 -50
      vertex -93.9693 212 -34.202
      vertex -95.3717 212 -30.0706
    endloop
  endfacet
  facet normal 0 1 0
    outer loop
      vertex -99.6195 212 8.71557
      vertex -50 212 50
      vertex -99.9048 212 4.36194
    endloop
  endfacet
  facet normal 0 1 0
    outer loop
      vertex -90.6308 212 42.2618
      vertex -88.7011 212 46.1749
      vertex -50 212 50
    endloop
  endfacet
  facet normal 0 1 0
    outer loop
      vertex -88.7011 212 46.1749
      vertex -86.6025 212 50
      vertex -50 212 50
    endloop
  endfacet
  facet normal 0 1 0
    outer loop
      vertex -50 212 50
      vertex -86.6025 212 50
      vertex -84.3391 212 53.73
    endloop
  endfacet
  facet normal 0 1 0
    outer loop
      vertex 30.0706 212 -95.3717
      vertex 25.8819 212 -96.5926
      vertex 50 212 -50
    endloop
  endfacet
  facet normal 0 1 0
    outer loop
      vertex 25.8819 212 -96.5926
      vertex 21.644 212 -97.6296
      vertex 50 212 -50
    endloop
  endfacet
  facet normal 0 1 0
    outer loop
      vertex 50 212 -50
      vertex 21.644 212 -97.6296
      vertex 17.3648 212 -98.4808
    endloop
  endfacet
  facet normal 0 1 0
    outer loop
      vertex -50 212 -50
      vertex 50 212 -50
      vertex 4.36194 212 -99.9048
    endloop
  endfacet
  facet normal 0 1 0
    outer loop
      vertex 4.36194 212 -99.9048
      vertex -2.83277e-14 212 -100
      vertex -50 212 -50
    endloop
  endfacet
  facet normal 0 1 0
    outer loop
      vertex -2.83277e-14 212 -100
      vertex -4.36194 212 -99.9048
      vertex -50 212 -50
    endloop
  endfacet
  facet normal 0 1 0
    outer loop
      vertex -50 212 -50
      vertex -4.36194 212 -99.9048
      vertex -8.71557 212 -99.6195
    endloop
  endfacet
  facet normal 0 1 0
    outer loop
      vertex -8.71557 212 -99.6195
      vertex -13.0526 212 -99.1445
      vertex -50 212 -50
    endloop
  endfacet
  facet normal 0 1 0
    outer loop
      vertex -13.0526 212 -99.1445
      vertex -17.3648 212 -98.4808
      vertex -50 212 -50
    endloop
  endfacet
  facet normal 0 1 0
    outer loop
      vertex -50 212 -50
      vertex -17.3648 212 -98.4808
      vertex -21.644 212 -97.6296
    endloop
  endfacet
  facet normal 0 1 0
    outer loop
      vertex -46.1749 212 -88.7011
      vertex -50 212 -86.6025
      vertex -50 212 -50
    endloop
  endfacet
  facet normal 0 1 0
    outer loop
      vertex -50 212 -86.6025
      vertex -53.73 212 -84.3391
      vertex -50 212 -50
    endloop
  endfacet
  facet normal 0 1 0
    outer loop
      vertex -50 212 -50
      vertex -53.73 212 -84.3391
      vertex -57.3576 212 -81.9152
    endloop
  endfacet
  facet normal 0 1 0
    outer loop
      vertex 70.7107 212 70.7107
      vertex 73.7277 212 67.559
      vertex 50 212 50
    endloop
  endfacet
  facet normal 0 1 0
    outer loop
      vertex 73.7277 212 67.559
      vertex 76.6044 212 64.2788
      vertex 50 212 50
    endloop
  endfacet
  facet normal 0 1 0
    outer loop
      vertex 50 212 50
      vertex 76.6044 212 64.2788
      vertex 79.3353 212 60.8761
    endloop
  endfacet
  facet normal 0 1 0
    outer loop
      vertex -25.8819 212 96.5926
      vertex -21.644 212 97.6296
      vertex -50 212 50
    endloop
  endfacet
  facet normal 0 1 0
    outer loop
      vertex -21.644 212 97.6296
      vertex -17.3648 212 98.4808
      vertex -50 212 50
    endloop
  endfacet
  facet normal 0 1 0
    outer loop
      vertex -50 212 50
      vertex -17.3648 212 98.4808
      vertex -13.0526 212 99.1445
    endloop
  endfacet
  facet normal 0 1 0
    outer loop
      vertex -13.0526 212 99.1445
      vertex -8.71557 212 99.6195
      vertex -50 212 50
    endloop
  endfacet
  facet normal 0 1 0
    outer loop
      vertex -8.71557 212 99.6195
      vertex -4.36194 212 99.9048
      vertex -50 212 50
    endloop
  endfacet
  facet normal 0 1 0
    outer loop
      vertex -50 212 50
      vertex -4.36194 212 99.9048
      vertex 50 212 50
    endloop
  endfacet
  facet normal 0 1 0
    outer loop
      vertex -4.36194 212 99.9048
      vertex 1.83697e-14 212 100
      vertex 50 212 50
    endloop
  endfacet
  facet normal 0 1 0
    outer loop
      vertex 50 212 50
      vertex 1.83697e-14 212 100
      vertex 4.36194 212 99.9048
    endloop
  endfacet
  facet normal 0 1 0
    outer loop
      vertex 4.36194 212 99.9048
      vertex 8.71557 212 99.6195
      vertex 50 212 50
    endloop
  endfacet
  facet normal 0 1 0
    outer loop
      vertex 8.71557 212 99.6195
      vertex 13.0526 212 99.1445
      vertex 50 212 50
    endloop
  endfacet
  facet normal 0 1 0
    outer loop
      vertex 50 212 50
      vertex 13.0526 212 99.1445
      vertex 17.3648 212 98.4808
    endloop
  endfacet
  facet normal 0 1 0
    outer loop
      vertex -99.1445 212 -13.0526
      vertex -99.6195 212 -8.71557
      vertex -50 212 -50
    endloop
  endfacet
  facet normal 0 1 0
    outer loop
      vertex -99.6195 212 -8.71557
      vertex -99.9048 212 -4.36194
      vertex -50 212 -50
    endloop
  endfacet
  facet normal 0 1 0
    outer loop
      vertex -50 212 -50
      vertex -99.9048 212 -4.36194
      vertex -50 212 50
    endloop
  endfacet
  facet normal 0 1 0
    outer loop
      vertex -99.9048 212 -4.36194
      vertex -100 212 -6.12323e-15
      vertex -50 212 50
    endloop
  endfacet
  facet normal 0 1 0
    outer loop
      vertex -50 212 50
      vertex -100 212 -6.12323e-15
      vertex -99.9048 212 4.36194
    endloop
  endfacet
  facet normal 0 1 0
    outer loop
      vertex -99.1445 212 13.0526
      vertex -98.4808 212 17.3648
      vertex -50 212 50
    endloop
  endfacet
  facet normal 0 1 0
    outer loop
      vertex -98.4808 212 17.3648
      vertex -97.6296 212 21.644
      vertex -50 212 50
    endloop
  endfacet
  facet normal 0 1 0
    outer loop
      vertex -50 212 50
      vertex -97.6296 212 21.644
      vertex -96.5926 212 25.8819
    endloop
  endfacet
  facet normal 0 1 0
    outer loop
      vertex 57.3576 212 -81.9152
      vertex 53.73 212 -84.3391
      vertex 50 212 -50
    endloop
  endfacet
  facet normal 0 1 0
    outer loop
      vertex 53.73 212 -84.3391
      vertex 50 212 -86.6025
      vertex 50 212 -50
    endloop
  endfacet
  facet normal 0 1 0
    outer loop
      vertex 50 212 -50
      vertex 50 212 -86.6025
      vertex 46.1749 212 -88.7011
    endloop
  endfacet
  facet normal 0 1 0
    outer loop
      vertex 17.3648 212 -98.4808
      vertex 13.0526 212 -99.1445
      vertex 50 212 -50
    endloop
  endfacet
  facet normal 0 1 0
    outer loop
      vertex 13.0526 212 -99.1445
      vertex 8.71557 212 -99.6195
      vertex 50 212 -50
    endloop
  endfacet
  facet normal 0 1 0
    outer loop
      vertex 50 212 -50
      vertex 8.71557 212 -99.6195
      vertex 4.36194 212 -99.9048
    endloop
  endfacet
  facet normal 0 1 0
    outer loop
      vertex -21.644 212 -97.6296
      vertex -25.8819 212 -96.5926
      vertex -50 212 -50
    endloop
  endfacet
  facet normal 0 1 0
    outer loop
      vertex -25.8819 212 -96.5926
      vertex -30.0706 212 -95.3717
      vertex -50 212 -50
    endloop
  endfacet
  facet normal 0 1 0
    outer loop
      vertex -50 212 -50
      vertex -30.0706 212 -95.3717
      vertex -34.202 212 -93.9693
    endloop
  endfacet
  facet normal 0 1 0
    outer loop
      vertex -57.3576 212 -81.9152
      vertex -60.8761 212 -79.3353
      vertex -50 212 -50
    endloop
  endfacet
  facet normal 0 1 0
    outer loop
      vertex -60.8761 212 -79.3353
      vertex -64.2788 212 -76.6044
      vertex -50 212 -50
    endloop
  endfacet
  facet normal 0 1 0
    outer loop
      vertex -50 212 -50
      vertex -64.2788 212 -76.6044
      vertex -67.559 212 -73.7277
    endloop
  endfacet
  facet normal 0 1 0
    outer loop
      vertex 50 212 -50
      vertex 99.9048 212 -4.36194
      vertex 99.6195 212 -8.71557
    endloop
  endfacet
  facet normal 0 1 0
    outer loop
      vertex 99.6195 212 -8.71557
      vertex 99.1445 212 -13.0526
      vertex 50 212 -50
    endloop
  endfacet
  facet normal 0 1 0
    outer loop
      vertex 99.1445 212 -13.0526
      vertex 98.4808 212 -17.3648
      vertex 50 212 -50
    endloop
  endfacet
  facet normal 0 1 0
    outer loop
      vertex 50 212 -50
      vertex 98.4808 212 -17.3648
      vertex 97.6296 212 -21.644
    endloop
  endfacet
  facet normal 0 1 0
    outer loop
      vertex 17.3648 212 98.4808
      vertex 21.644 212 97.6296
      vertex 50 212 50
    endloop
  endfacet
  facet normal 0 1 0
    outer loop
      vertex 21.644 212 97.6296
      vertex 25.8819 212 96.5926
      vertex 50 212 50
    endloop
  endfacet
  facet normal 0 1 0
    outer loop
      vertex 50 212 50
      vertex 25.8819 212 96.5926
      vertex 30.0706 212 95.3717
    endloop
  endfacet
  facet normal 0 1 0
    outer loop
      vertex -96.5926 212 25.8819
      vertex -95.3717 212 30.0706
      vertex -50 212 50
    endloop
  endfacet
  facet normal 0 1 0
    outer loop
      vertex -95.3717 212 30.0706
      vertex -93.9693 212 34.202
      vertex -50 212 50
    endloop
  endfacet
  facet normal 0 1 0
    outer loop
      vertex -50 212 50
      vertex -93.9693 212 34.202
      vertex -92.388 212 38.2683
    endloop
  endfacet
  facet normal 0 1 0
    outer loop
      vertex 46.1749 212 -88.7011
      vertex 42.2618 212 -90.6308
      vertex 50 212 -50
    endloop
  endfacet
  facet normal 0 1 0
    outer loop
      vertex 42.2618 212 -90.6308
      vertex 38.2683 212 -92.388
      vertex 50 212 -50
    endloop
  endfacet
  facet normal 0 1 0
    outer loop
      vertex 50 212 -50
      vertex 38.2683 212 -92.388
      vertex 34.202 212 -93.9693
    endloop
  endfacet
  facet normal 0 1 0
    outer loop
      vertex 92.388 212 38.2683
      vertex 93.9693 212 34.202
      vertex 50 212 50
    endloop
  endfacet
  facet normal 0 1 0
    outer loop
      vertex 93.9693 212 34.202
      vertex 95.3717 212 30.0706
      vertex 50 212 50
    endloop
  endfacet
  facet normal 0 1 0
    outer loop
      vertex 50 212 50
      vertex 95.3717 212 30.0706
      vertex 96.5926 212 25.8819
    endloop
  endfacet
  facet normal 0 1 0
    outer loop
      vertex 96.5926 212 25.8819
      vertex 97.6296 212 21.644
      vertex 50 212 50
    endloop
  endfacet
  facet normal 0 1 0
    outer loop
      vertex 97.6296 212 21.644
      vertex 98.4808 212 17.3648
      vertex 50 212 50
    endloop
  endfacet
  facet normal 0 1 0
    outer loop
      vertex 50 212 50
      vertex 98.4808 212 17.3648
      vertex 99.1445 212 13.0526
    endloop
  endfacet
  facet normal 0 1 0
    outer loop
      vertex 99.1445 212 13.0526
      vertex 99.6195 212 8.71557
      vertex 50 212 50
    endloop
  endfacet
  facet normal 0 1 0
    outer loop
      vertex 99.6195 212 8.71557
      vertex 99.9048 212 4.36194
      vertex 50 212 50
    endloop
  endfacet
  facet normal 0 1 0
    outer loop
      vertex 50 212 50
      vertex 99.9048 212 4.36194
      vertex 50 212 -50
    endloop
  endfacet
  facet normal 0 1 0
    outer loop
      vertex 99.9048 212 4.36194
      vertex 100 212 -4.28626e-14
      vertex 50 212 -50
    endloop
  endfacet
  facet normal 0 1 0
    outer loop
      vertex 50 212 -50
      vertex 100 212 -4.28626e-14
      vertex 99.9048 212 -4.36194
    endloop
  endfacet
  facet normal 0 1 0
    outer loop
      vertex 97.6296 212 -21.644
      vertex 96.5926 212 -25.8819
      vertex 50 212 -50
    endloop
  endfacet
  facet normal 0 1 0
    outer loop
      vertex 96.5926 212 -25.8819
      vertex 95.3717 212 -30.0706
      vertex 50 212 -50
    endloop
  endfacet
  facet normal 0 1 0
    outer loop
      vertex 50 212 -50
      vertex 95.3717 212 -30.0706
      vertex 93.9693 212 -34.202
    endloop
  endfacet
  facet normal 0 1 0
    outer loop
      vertex 93.9693 212 -34.202
      vertex 92.388 212 -38.2683
      vertex 50 212 -50
    endloop
  endfacet
  facet normal 0 1 0
    outer loop
      vertex 92.388 212 -38.2683
      vertex 90.6308 212 -42.2618
      vertex 50 212 -50
    endloop
  endfacet
  facet normal 0 1 0
    outer loop
      vertex 50 212 -50
      vertex 90.6308 212 -42.2618
      vertex 88.7011 212 -46.1749
    endloop
  endfacet
  facet normal 0 1 0
    outer loop
      vertex 30.0706 212 95.3717
      vertex 34.202 212 93.9693
      vertex 50 212 50
    endloop
  endfacet
  facet normal 0 1 0
    outer loop
      vertex 34.202 212 93.9693
      vertex 38.2683 212 92.388
      vertex 50 212 50
    endloop
  endfacet
  facet normal 0 1 0
    outer loop
      vertex 50 212 50
      vertex 38.2683 212 92.388
      vertex 42.2618 212 90.6308
    endloop
  endfacet
  facet normal 0 1 0
    outer loop
      vertex 88.7011 212 -46.1749
      vertex 86.6025 212 -50
      vertex 50 212 -50
    endloop
  endfacet
  facet normal 0 1 0
    outer loop
      vertex 86.6025 212 -50
      vertex 84.3391 212 -53.73
      vertex 50 212 -50
    endloop
  endfacet
  facet normal 0 1 0
    outer loop
      vertex 50 212 -50
      vertex 84.3391 212 -53.73
      vertex 81.9152 212 -57.3576
    endloop
  endfacet
endsolid Mesh
